<?xml version="1.0" encoding="utf-8"?>
<!-- Generator: Adobe Illustrator 23.1.0, SVG Export Plug-In . SVG Version: 6.00 Build 0)  -->
<svg version="1.1" id="Слой_1" xmlns="http://www.w3.org/2000/svg" xmlns:xlink="http://www.w3.org/1999/xlink" x="0px" y="0px"
	 viewBox="0 0 95.24 89.98" style="enable-background:new 0 0 95.24 89.98;" xml:space="preserve">
<style type="text/css">
	.st0{fill-rule:evenodd;clip-rule:evenodd;fill:#A5A5A5;}
</style>
<path id="Ico" class="st0" d="M41.64,17.67c-1.7-2.5-3.9-4.7-6.4-6.5c-0.3-0.2-0.7-0.2-1,0.2l-3.2,6.2l1.9-7.2
	c0.1-0.5,0-0.7-0.4-0.9c-2.1-1.2-4.3-2.1-6.6-2.7c-0.4-0.1-0.7,0.1-0.7,0.6l0.4,11.2l-3.6-11.8c-0.2-0.5-0.4-0.9-1.2-0.9
	c-2.9-0.2-5.8,0-8.5,0.9c-0.6,0.2-0.8,0.8-0.4,1.4l9.6,14.9l-13.1-13c-0.6-0.6-1.2-0.5-1.7-0.1c-2.2,1.9-3.9,4.5-5.1,7.8
	c-0.4,1.1-0.1,1.8,1,2.3l15.8,8l-16.4-3.3c-1.2-0.2-1.8,0.1-1.9,1.3c-0.1,1.9-0.2,3.8-0.1,5.7c0.1,1.4,0.8,1.9,2,1.9l14.5,0.8
	l-14.3,2.3c-1.2,0.2-1.6,0.7-1.4,2c0.4,2.2,0.9,4.5,1.5,6.7c0.4,1.4,1.2,2,2.8,1.6l10-2.4l-8.5,5.9c-1.3,0.9-1.7,2.2-0.9,3.8
	c0.7,1.5,1.5,2.9,2.3,4.3c0.8,1.2,2.2,1.3,3.1,0.5l4-3.8l-2.6,5.6c-0.5,1.1-0.7,2.4,0.3,3.4c2.3,1.9,6.5,2.1,8.3,0.7
	c1.2-0.9,1.1-2.4,0.4-3.9c-7.2-14.7-1.2-34,15.4-40.9c-16,10.8-18.1,34.9-2.5,47.9c-5.3,3-7.3,6-8.2,9.7c-1.5,5.8,12.4,13,21.9,9.3
	c3.3-1.3,6.4-4.6,9.3-8.6c0,2.7-0.3,5.5-1.5,8.2c-0.8,1.8,0.7,2.9,1.2,2.2c0.1-0.2,0.2-0.4,0.3-0.6c0.1-0.3,0.5-0.3,0.6,0.1
	c0.4,1.2,1,1.6,2.7,1.5c3.3-0.3,5.2-0.4,7.9-0.3c1.7,0.1,1.9-1.4-0.5-1.6c-2.1-0.2-3.9-0.3-5.1-1c-1.8-1.2-2.1-5.1-2.2-7
	c-0.1-1.9-0.1-4.2-0.1-6.3c3.7-6.1,7-12.6,9.8-16.5c-1.8,4.1-3.4,10.7-5.5,17.2c-0.4,1.3,0.4,2.1,1.7,1.9c9.8-1.7,16.9-7.2,21.7-13
	c8.8-10.6,8.6-20.5,2-26c-1.6-5.4-2-10.3-3.4-15.8c-0.9-3.6-2.4-6.4-3.6-10c-0.5-1.5,0.1-2.6,1.7-1.9c2.8,1.2,4.6,3.6,5.4,7.4
	c0.8,4.2,2.3,2.3,2.3,2.3c0.4-8.6-4.6-11.4-5.9-14.9c-1.3-3.6-7.4-6.1-9.9-3.2c-2.5,2.9-3.6,5.9-0.2,14.5c2.6,6.5,1.2,12.2,0.4,14.6
	c-1.8-1.4-3.4-3.4-5.6-7.1c-3.5-5.8-8.7-8.6-16.4-8.5C50.14,14.87,45.54,15.87,41.64,17.67z"/>
</svg>
