<?xml version="1.0" encoding="utf-8"?>
<!-- Generator: Adobe Illustrator 23.1.0, SVG Export Plug-In . SVG Version: 6.00 Build 0)  -->
<svg version="1.1" id="Слой_1" xmlns="http://www.w3.org/2000/svg" xmlns:xlink="http://www.w3.org/1999/xlink" x="0px" y="0px"
	 viewBox="0 0 94.9 90" style="enable-background:new 0 0 94.9 90;" xml:space="preserve">
<style type="text/css">
	.st0{fill:#A5A5A5;}
</style>
<g id="Ico_12_">
	<path class="st0" d="M78.4,42c-1.2,0.7-2.6,1.3-4.3,1.8c-2.6,0.8-5.9,1.3-10,1.6c-1.8,0.1-3.6,0.2-5.4,0.2
		c-1.2,0.8-2.3,1.6-3.3,2.6l1.4,15.4c4,0.8,9.7,0.7,16,0.7c12.2,0,22.1,0.6,22.1-6.8C95,51.2,88,44.1,78.4,42z"/>
	<path class="st0" d="M66.9,65.1l-1.8,19.5c0,3,3.5,5.4,7.8,5.4l0,0l0,0c4.3,0,7.8-2.4,7.8-5.4l-1.8-19.5H66.9z"/>
	<path class="st0" d="M40.9,0C18.3,0,0,16,0,29.7s18.4,12.5,41,12.5s40.9,1.1,40.9-12.5S63.6,0,40.9,0z"/>
	<path class="st0" d="M29.9,43.9L26.5,80c0,5.5,6.5,10,14.5,10l0,0l0,0c8,0,14.5-4.5,14.5-10l-3.4-36.1H29.9z"/>
</g>
</svg>
