<?xml version="1.0" encoding="utf-8"?>
<!-- Generator: Adobe Illustrator 23.1.0, SVG Export Plug-In . SVG Version: 6.00 Build 0)  -->
<svg version="1.1" id="Слой_1" xmlns="http://www.w3.org/2000/svg" xmlns:xlink="http://www.w3.org/1999/xlink" x="0px" y="0px"
	 viewBox="0 0 78.56 90.2" style="enable-background:new 0 0 78.56 90.2;" xml:space="preserve">
<style type="text/css">
	.st0{fill:#A5A5A5;}
</style>
<path class="st0" d="M77.08,63.5l-12.6-7.3l11.8-3.4c1.6-0.4,2.5-2.1,2-3.6s-2.1-2.5-3.6-2l-17.2,5l-5.1-2.9v-8.4l5.1-2.9l17.2,5
	c0.3,0.1,0.5,0.1,0.8,0.1c1.3,0,2.5-0.8,2.8-2.1c0.4-1.6-0.5-3.2-2-3.6L64.48,34l12.6-7.3c1.4-0.8,1.9-2.6,1.1-4
	c-0.8-1.4-2.6-1.9-4-1.1l-12.6,7.3l3-11.9c0.4-1.6-0.6-3.2-2.1-3.6c-1.6-0.4-3.2,0.6-3.6,2.1l-4.3,17.4l-5.1,2.9l-7.3-4.2v-5.8
	l12.9-12.5c1.2-1.1,1.2-3,0.1-4.2c-1.1-1.2-3-1.2-4.2-0.1l-8.8,8.5V2.9c0-1.6-1.3-2.9-2.9-2.9s-2.9,1.3-2.9,2.9v14.6L27.58,9
	c-1.2-1.1-3-1.1-4.2,0.1c-1.1,1.2-1.1,3,0.1,4.2l12.9,12.5v5.8l-7.3,4.2l-5.1-2.9l-4.3-17.4c-0.4-1.6-2-2.5-3.6-2.1s-2.5,2-2.1,3.6
	l3,11.9l-12.6-7.3c-1.4-0.8-3.2-0.3-4,1.1s-0.3,3.2,1.1,4l12.6,7.3l-11.8,3.4c-1.6,0.4-2.5,2.1-2,3.6c0.4,1.3,1.5,2.1,2.8,2.1
	c0.3,0,0.5,0,0.8-0.1l17.2-5l5.1,2.9v8.4l-5.1,2.9l-17.2-5c-1.6-0.4-3.2,0.5-3.6,2c-0.4,1.6,0.5,3.2,2,3.6l11.8,3.4l-12.6,7.3
	c-1.4,0.8-1.9,2.6-1.1,4c0.5,0.9,1.5,1.5,2.5,1.5c0.5,0,1-0.1,1.5-0.4l12.6-7.3l-3,11.9c-0.4,1.6,0.6,3.2,2.1,3.6
	c0.2,0.1,0.5,0.1,0.7,0.1c1.3,0,2.5-0.9,2.8-2.2l4.3-17.4l5.1-2.9l7.3,4.2v5.8l-12.9,12.5c-1.2,1.1-1.2,3-0.1,4.2
	c0.6,0.6,1.3,0.9,2.1,0.9c0.7,0,1.5-0.3,2-0.8l8.8-8.5v14.6c0,1.6,1.3,2.9,2.9,2.9s2.9-1.3,2.9-2.9V72.7l8.8,8.5
	c1.2,1.1,3,1.1,4.2-0.1c1.1-1.2,1.1-3-0.1-4.2l-12.9-12.5v-5.8l7.3-4.2l5.1,2.9l4.3,17.4c0.3,1.3,1.5,2.2,2.8,2.2
	c0.2,0,0.5,0,0.7-0.1c1.6-0.4,2.5-2,2.1-3.6l-3-11.9l12.6,7.3c0.5,0.3,1,0.4,1.5,0.4c1,0,2-0.5,2.5-1.5
	C78.98,66.1,78.48,64.3,77.08,63.5z M45.98,49l-6.8,4l-6.8-4v-7.9l6.8-4l6.8,4V49z"/>
</svg>
