<?xml version="1.0" encoding="utf-8"?>
<!-- Generator: Adobe Illustrator 23.1.0, SVG Export Plug-In . SVG Version: 6.00 Build 0)  -->
<svg version="1.1" id="Слой_1" xmlns="http://www.w3.org/2000/svg" xmlns:xlink="http://www.w3.org/1999/xlink" x="0px" y="0px"
	 viewBox="0 0 38.2 49.8" style="enable-background:new 0 0 38.2 49.8;" xml:space="preserve">
<style type="text/css">
	.st0{fill:#A5A5A5;}
</style>
<path id="Ico_8_" class="st0" d="M21.6,23.1c0,0,1-0.6,2.3-2L24,21h0.1c5.6-1.9,8.8-5.7,8.9-5.8C38.1,9.1,38.2,2.3,38.2,2V1.4h-8.5
	L29.8,0H8.4l0.1,1.4H0V2c0,0.3,0.1,7.1,5.2,13.2c0.1,0.2,3.3,4,8.9,5.8h0.1l0.1,0.1c1.3,1.4,2.3,2,2.3,2l0.1,0.1v4.1l-1.8,4.2h-6
	v12.2h-4v6.1h28.7v-6.1h-4V31.5h-6l-1.8-4.2v-4.1L21.6,23.1z M29.5,2.9h6.7v0.3C35.9,5.5,34.9,10,31.5,14c-0.1,0.1-1.7,2-4.6,3.7
	L26,18.2l0.5-0.9c1.5-2.8,2.4-6.1,2.7-9.6L29.5,2.9z M11.1,17.7C8.2,16,6.6,14.1,6.5,14C3.1,10,2.1,5.5,1.8,3.2V2.9h6.7l0.3,4.8
	c0.3,3.6,1.2,6.8,2.7,9.6l0.5,0.9L11.1,17.7z M31.6,45.5v2.6H6.4v-2.6H31.6z M27.6,33.3v10.5H10.4V33.3H27.6z M20,28.3l1.4,3.2h-4.8
	l1.4-3.2c0.2-0.4,0.2-0.8,0.2-1.2v-3.7v-0.1c0-0.5-0.2-1.1-0.7-1.4c-1.2-0.6-2.2-1.5-3-2.5l0,0v-0.1c-2.7-3.4-3.4-8.2-3.4-8.2l0,0
	c-0.3-1.1-0.4-2.3-0.5-3.6l-0.4-5.8h17.7l-0.1,1.1l0,0l-0.3,4.7c-0.1,1.2-0.3,2.4-0.5,3.6l0,0c0,0-0.7,4.8-3.4,8.2v0.1l0,0l0,0
	c-0.8,1-1.8,1.9-3,2.5l0,0c-0.4,0.4-0.7,0.9-0.7,1.4v3.8C19.7,27.5,19.8,27.9,20,28.3z"/>
</svg>
