<?xml version="1.0" encoding="utf-8"?>
<!-- Generator: Adobe Illustrator 23.1.0, SVG Export Plug-In . SVG Version: 6.00 Build 0)  -->
<svg version="1.1" id="Слой_1" xmlns="http://www.w3.org/2000/svg" xmlns:xlink="http://www.w3.org/1999/xlink" x="0px" y="0px"
	 viewBox="0 0 74.6 50.3" style="enable-background:new 0 0 74.6 50.3;" xml:space="preserve">
<style type="text/css">
	.st0{fill:#A5A5A5;}
	.st1{fill-rule:evenodd;clip-rule:evenodd;fill:#A5A5A5;}
</style>
<g id="Ico_4_">
	<path class="st0" d="M40.3,44.9c-0.1,0.5-0.3,1-0.2,1.5c0,0.1,0.1,0.3,0.2,0.4c0.1,0.1,0.2,0.1,0.3,0.1l0,0c0.1,0,0.1,0,0.2,0
		c0,0,0,0,0,0.1c0,0.2,0,0.5,0,0.8c0,0.2,0.1,0.6,0.2,1c0.1,0.2,0.2,0.3,0.3,0.5c0,0,0,0,0.1,0.1c0,0.1,0.1,0.1,0.1,0.1l0,0
		c0.1,0.1,0.1,0.1,0.2,0.2l0.1,0.1c0.1,0,0.1,0.1,0.1,0.1c0.1,0,0.2,0.1,0.3,0.1c0.2,0.1,0.3,0.1,0.5,0.2c0.4,0.1,0.8,0.1,1.1,0.1
		c0,0,0,0,0.1,0s0.1,0,0.2,0c0.1,0,0.2,0,0.3,0c0.3-0.1,0.5-0.2,0.7-0.4c0.1-0.1,0.2-0.3,0.2-0.4c0-0.1,0-0.2,0-0.4
		s-0.1-0.4-0.2-0.6c-0.1-0.4-0.3-0.7-0.5-0.9c-0.2-0.3-0.3-0.6-0.5-0.8c-0.1-0.1-0.1-0.2-0.2-0.2c-0.2-1.3-0.3-2.7-0.4-4.1
		c-1,0.2-2.1,0.4-3.1,0.5C40.5,43.5,40.4,44.2,40.3,44.9z"/>
	<path class="st0" d="M74.1,13.6c-0.3-0.3-0.6-0.4-1.1-0.7c-0.3-0.2-0.5-0.4-0.8-0.7c-0.2-0.2-0.4-0.5-0.6-0.7
		c-0.3-0.4-0.5-0.7-0.8-1.1c-0.2-0.3-0.4-0.6-0.6-0.8c-0.2-0.2-0.4-0.4-0.6-0.7C69,7.3,68.3,6.3,67,5.2c-0.2-0.5-0.5-1-0.9-1.4
		c0.9-0.7,1.5-1.4,1.8-2.2C67.9,1.4,68,1.2,68,1c0-0.1,0-0.1-0.1-0.1c0,0-0.1,0.1-0.1,0.2c-0.7,0.8-1.5,1.4-2.7,1.9
		c-0.8-0.4-1.6-0.4-2.4-0.1c0.7-0.7,1.4-1.4,1.5-2.5l0,0c0-0.4-0.3-0.5-0.5-0.3c-0.1,0.1-0.2,0.2-0.2,0.3c-0.2,0.3-0.6,0.8-0.9,1
		c-0.3,0.3-0.7,0.6-1.1,0.8c-0.3,0.2-0.5,0.4-0.8,0.6c-0.4,0.4-0.3,0.9-0.1,1.4c-0.1,0.1-0.4,0.3-0.5,0.4H60
		c-0.8-0.2-1.5-0.2-2.2,0.1c0,0,0,0-0.1,0c-0.4,0.2-0.7,0.5-0.5,1c0.1,0.2,0.3,0.4,0.4,0.6c-0.8,0.6-1.6,1-2.3,1.3
		c-2.4-0.3-4.7-0.3-7.1-0.3c-3.7,0.2-7.4,0.5-11.1,0.9c-4.8,0.4-9,0.6-13.9,0.4C18.6,6.6,12.1,5,7.3,7c0,0-0.1,0-0.1,0.1
		C5.5,7,4.2,7.4,3.3,8.3C2.4,9.1,1.9,10.4,1.8,12c-0.1,0.7,0,1.4,0,2.2c0.1,1.4,0.3,2.7,0.5,3.9c0.4,2.7,0.7,5.1,0.3,8.6
		c-0.8,0.2-1,1.1-1.1,2.2c-0.1,1.4,0.4,3.4-1.1,4.4c0.1,0,0.3,0,0.4-0.1c-0.2,0.2-0.6,0.5-0.8,0.6c0.6,0,1.1-0.3,1.4-0.7
		c0,0.1-0.1,0.3-0.1,0.4c0.1,0,0.1-0.1,0.2-0.2c0,0.3,0,0.7,0,1c0,0.4,0.1,0.8,0.2,1.1c0.6,3.3,0.4,5.8,0.2,9.1
		c0,0.4-0.1,1.8,0.5,1.8c0.1,0,0.2,0,0.2-0.1c0,0.5,0.1,1,0.2,1.5c0.1,0.4,0.3,0.7,0.5,1c0.1,0.1,0.3,0.3,0.5,0.4
		c0.2,0.1,0.4,0.2,0.6,0.2c0.7,0.2,1.7,0.4,2.4,0.1c0.1,0,0.2-0.1,0.3-0.2c0.1-0.1,0.2-0.2,0.3-0.4c0.1-0.3,0-0.5,0-0.7
		c-0.1-0.2-0.1-0.4-0.2-0.5c-0.1-0.2-0.2-0.3-0.3-0.5c-0.2-0.3-0.4-0.5-0.6-0.8c-0.2-0.2-0.4-0.4-0.5-0.5c-0.3-1.7-0.6-3.5-0.6-5.2
		c0-2.4,0.5-4.2,2.2-6.1l0.1-0.1c0.7,2.8,2.7,6.2,3.3,11.2c0.1,0.8,0.6,1.1,0.9,0.9c0.1,2.7,4.4,2.1,4.6,1.6
		c0.4-0.7-2.2-3.8-2.7-4.3c-1.3-2-1.6-5.1-1.6-8.4c0.2,0.4,0.5,0.4,0.8,0c0.4,0.5,0.9,0.3,1-1.2c0.3,0,0.5-0.1,0.8-0.3
		c0,1.3,0.6,1.5,0.9,0.8c0.5,0.9,1.2,0.3,1.1-1.9c0.5-0.4,1.1-0.8,1.6-1.2c0-0.6,0.1-1.1,0.2-1.7c-0.1,0-0.3,0-0.5,0
		c-0.8,0-1.4-0.4-1.8-1c-0.4-0.7-0.5-1.5-0.1-2.2c0.3-0.6,0.9-1,1.6-1.1c-0.1-0.2,0-0.4,0.1-0.6c0.1-0.2,0.4-0.6,1.2-0.4
		c0.6,0.2,1.1,0.7,1.4,1.3l0,0c1.3-1.6,3.2-2.9,5.2-3.6c1.6-0.6,3.4-1,5.7-1.2c0.9-0.1,1.9-0.1,2.9-0.2c2.6-0.1,5.5,0,8.7,0.3
		c6.4,0.5,11.2,1.6,15.2,3.3c0.1,0,0.2,0.1,0.3,0.1c0.3-1,0.4-1.9,0.4-2.7c0.5-0.9,1.2-1.9,1.9-2.6c0.7-0.8,1.2-1,2.2-1.5
		c1,0.3,1.4,0.4,2.5,0.4c1,0,2.2-0.3,3.2-0.5c1.6-0.2,4.2,0.8,4.7-0.9c0.1,0,0.3-0.1,0.4-0.1c0.4-0.2,0.7-0.5,0.9-0.8
		c0-0.1,0.1-0.2,0.1-0.3C74.6,15.2,74.6,14.2,74.1,13.6z M3.6,27.8L3.6,27.8c-0.1,0.1-0.1,0.3-0.2,0.4c0-0.5-0.1-0.9-0.4-1.2
		c-0.1-0.1-0.1-0.1-0.2-0.2c0.4-3.6,0.1-6-0.3-8.7c-0.1-0.8-0.2-1.7-0.3-2.6c0.1,0.5,0.2,0.9,0.4,1.4C2.8,17.5,2.9,18,3,18.5
		l0.1,0.3c0.4,1.9,0.7,3.7,0.8,5.2C3.9,25.5,3.9,26.8,3.6,27.8z"/>
	<path class="st1" d="M68.3,38.5c-0.2-0.2-0.5-0.1-0.7,0.1c-1-0.5-1.7-1.1-2.3-2.1c-0.6-2-0.5-4.1-1.7-6.2c0.9-0.9,1.2-2.5,2.3-3.8
		c-1.5,0.2-2.4,0.9-3.2,1.3c0.3-0.8,0.6-1.6,0.8-2.2c-0.6,0.6-1.4,1.3-2.4,1.8c-1.1-0.8-2.4-1.5-3.7-2c-4.6-2-10-2.8-15-3.2
		c-2.8-0.2-5.8-0.3-8.6-0.3c-1,0-2,0.1-2.9,0.2c-2.2,0.2-4,0.6-5.5,1.2c-2.4,0.9-4.7,2.7-5.9,4.9c0,0,0,0.1-0.1,0.1
		c0-0.1-0.1-0.2-0.1-0.3l0,0c0.1-0.2,0.1-0.5,0.1-0.7c0-0.3-0.1-0.5-0.2-0.8c-0.2-0.4-0.5-0.8-0.9-0.9c-0.5-0.1-0.3,0.1-0.1,0.3
		c0.4,0.3,0.8,1.1,0.7,1.5c-0.3-0.4-0.7-0.7-1.2-0.7c-0.1,0-0.2,0-0.3,0c-1,0-1.7,1.2-1.1,2.1c0.3,0.5,0.8,0.7,1.3,0.6
		c0.4,0,0.9-0.2,1.2-0.6c0,0.1,0.1,0.3,0.2,0.4c-0.7,1.7-0.8,3.4-0.5,5.2c0.2,1.1,0.6,2,0.9,2.8c0.2,0.6,0.5,1.3,0.6,1.9
		c0,0.1,0,0.2,0,0.3c-0.1,0.1-0.1,0.3-0.2,0.4c-0.4,0.7-0.8,1.2-1,2s-0.1,1.6,0.1,2.5c0.1,0.4,0.2,0.7,0.3,1.1c0.1,0.6-0.1,1.4,0,2
		c0,0.3,0.1,0.6,0.2,1c0.1,0.2,0.2,0.3,0.4,0.4c0.1,0.1,0.2,0.1,0.3,0l0,0c0.1,0.4,0.3,0.7,0.7,0.9c0.4,0.3,1.1,0.4,1.7,0.4
		c0.3,0,0.5,0,0.7-0.1c0.6-0.1,0.7-0.5,0.4-1c-0.1-0.1-0.1-0.2-0.2-0.3c-0.3-0.3-0.6-0.6-1-0.7c-0.5-1.6-0.7-2.5-0.5-4.1
		c0.4-0.6,0.9-1.2,1.5-1.7c0.4,0.9,0.8,1.8,1,2.7c0.2,0.6,0.2,1.2,0.2,1.7c0.1,0.4,0.2,0.6,0.4,0.8c0.3,0.2,0.5,0.2,0.8,0.5
		c0.1,0.2,0.2,0.4,0.3,0.6c0.1,0.5,0.7,0.8,1.4,0.9c0.4,0.1,1.7,0.2,1.8-0.3c0.1-0.3-0.2-0.6-0.3-0.8c-0.2-0.3-0.5-0.5-0.8-0.7
		c-0.7-1.1-1.2-2.5-1.4-3.8c0-0.9,0.1-1.8,0.4-2.6c5.7,1.7,12.1,1.5,17.7,0.1c0.4,0.1,0.8,0.1,1.3,0.1c0.6,1.9,1.2,3.5,0.9,5.5
		c-0.1,0.9,0,1.5,0.4,1.6c0.3,0.8,0.9,1.1,1.6,1.2c1.1,0.1,1.4,0,1.2-0.5c-0.1-0.5-0.6-1.2-0.9-1.6c-0.1-1.1,0-2.3,0.2-3.2
		c0.1,0.2,0.2,0.3,0.3,0.5c0.2,0.4,0.3,0.6,0.4,0.9c0.1,0.4,0.2,0.8,0.3,1.2c0,0.4,0,0.9,0,1.3c0,0.2,0.1,0.5,0.2,0.6
		C50.9,49,51,49,51.1,49c0,0.1,0.1,0.2,0.1,0.3c0.1,0.2,0.2,0.3,0.3,0.4c0.5,0.4,1.6,0.5,2.1,0.3c0.1-0.1,0.3-0.2,0.3-0.3
		c0-0.2,0-0.3,0-0.4c-0.1-0.4-0.5-0.8-0.8-1.1L53,48.1l-0.1-0.4c-0.3-2.1-0.3-4.2,0.3-6.3c2.8,0.9,5.7,1,9.6,0
		c0.3,0.1,0.5,0.2,0.8,0.3c0.4,0.1,0.8,0.1,1.1,0.1s0.5,0,0.8-0.1c0.2,0,0.5-0.1,0.7-0.1c0.1,0,0.3,0,0.4,0c0.3,0,0.5-0.2,0.7-0.3
		c0.5-0.4,0.8-1.1,0.9-1.7C68.5,39.2,68.5,38.8,68.3,38.5z M17.9,28.8h-0.1c-0.3,0-0.6-0.1-0.7-0.4c-0.3-0.4-0.1-1,0.5-1
		c0.1,0,0.2,0,0.3,0c0.4,0.1,0.8,0.5,0.9,0.8C18.5,28.4,18.2,28.7,17.9,28.8z"/>
</g>
</svg>
