<?xml version="1.0" encoding="utf-8"?>
<!-- Generator: Adobe Illustrator 23.1.0, SVG Export Plug-In . SVG Version: 6.00 Build 0)  -->
<svg version="1.1" id="Слой_1" xmlns="http://www.w3.org/2000/svg" xmlns:xlink="http://www.w3.org/1999/xlink" x="0px" y="0px"
	 viewBox="0 0 50 50" style="enable-background:new 0 0 50 50;" xml:space="preserve">
<style type="text/css">
	.st0{fill:#A5A5A5;}
</style>
<g id="Ico_15_">
	<path class="st0" d="M25,0C11.2,0,0,11.2,0,25s11.2,25,25,25s25-11.2,25-25S38.8,0,25,0z M25.9,47.6v-1.3c0-0.6-0.5-1.2-1.2-1.2
		s-1.2,0.5-1.2,1.2v1.3C12,46.8,2.9,37.6,2.4,26h1.2c0.6,0,1.2-0.5,1.2-1.2s-0.5-1.2-1.2-1.2H2.4C3.1,12.2,12.1,3.1,23.5,2.3v1.4
		c0,0.6,0.5,1.2,1.2,1.2s1.2-0.5,1.2-1.2V2.3C37.6,2.7,47,12,47.6,23.6h-1.4c-0.6,0-1.2,0.5-1.2,1.2s0.5,1.2,1.2,1.2h1.4
		C47.1,37.7,37.6,47.2,25.9,47.6z"/>
	<path class="st0" d="M39.8,23.7h-14V9.5c0-0.6-0.5-1.2-1.2-1.2s-1.2,0.5-1.2,1.2v15.3v0.1c0,0.6,0.5,1.2,1.2,1.2h15.2l0,0
		c0.6,0,1.2-0.5,1.2-1.2C41,24.2,40.5,23.7,39.8,23.7z"/>
	<g>
		<polygon class="st0" points="45,21.1 45,21.1 45,21.1 		"/>
		<polygon class="st0" points="37.8,21.1 37.8,21.1 41.1,17.9 		"/>
		<polygon class="st0" points="42.7,15 42.7,15 40.5,17.3 		"/>
		<polygon class="st0" points="42.3,14.3 35.4,21.1 35.4,21.1 		"/>
		<polygon class="st0" points="38.4,9.8 38.4,9.8 28,20.2 28,20.2 		"/>
		<polygon class="st0" points="32.7,5.9 32.7,5.9 28,10.7 28,10.7 		"/>
		<polygon class="st0" points="31,5.3 31,5.3 28,8.3 28,8.3 		"/>
		<polygon class="st0" points="30.1,5 28,7.1 28,7.1 		"/>
		<polygon class="st0" points="29.1,4.8 29.1,4.8 28,5.9 28,5.9 		"/>
		<path class="st0" d="M28,5.9v1.2L30.1,5c-0.4-0.1-0.7-0.2-1-0.2L28,5.9z"/>
		<polygon class="st0" points="31.9,5.6 28,9.5 28,9.5 		"/>
		<path class="st0" d="M28,8.3v1.2l3.9-3.9c-0.3-0.1-0.6-0.2-0.9-0.3L28,8.3z"/>
		<polygon class="st0" points="33.5,6.3 28,11.9 28,11.9 		"/>
		<path class="st0" d="M28,10.7v1.2l5.5-5.5C33.2,6.3,33,6.1,32.7,6L28,10.7z"/>
		<path class="st0" d="M34.3,6.7L28,13v1.2l7.1-7.1C34.8,7,34.5,6.9,34.3,6.7z"/>
		<path class="st0" d="M35.8,7.6L28,15.4v1.2l8.5-8.5C36.2,8,36,7.8,35.8,7.6z"/>
		<path class="st0" d="M37.1,8.7l-9.2,9.2v1.2l9.8-9.8C37.6,9,37.4,8.8,37.1,8.7z"/>
		<polygon class="st0" points="39,10.4 28.2,21.1 28.2,21.1 		"/>
		<path class="st0" d="M38.4,9.8L28,20.2v0.9h0.3l10.8-10.8c-0.1-0.1-0.1-0.2-0.2-0.2C38.7,10,38.5,9.9,38.4,9.8z"/>
		<path class="st0" d="M39.6,11L29.5,21.1h1.2l9.5-9.5C40,11.4,39.8,11.2,39.6,11z"/>
		<polygon class="st0" points="40.7,12.2 40.7,12.2 31.8,21.1 31.8,21.1 		"/>
		<path class="st0" d="M40.7,12.2l-8.9,8.9H33l8.2-8.2C41.1,12.7,40.9,12.5,40.7,12.2z"/>
		<polygon class="st0" points="41.8,13.6 41.8,13.6 34.2,21.1 34.2,21.1 		"/>
		<path class="st0" d="M34.2,21.1h1.2l6.9-6.9c-0.1-0.2-0.3-0.5-0.5-0.7L34.2,21.1z"/>
		<polygon class="st0" points="40.5,17.3 36.6,21.1 36.6,21.1 		"/>
		<polygon class="st0" points="41.1,17.9 43.2,15.7 43.2,15.7 		"/>
		<path class="st0" d="M42.7,15l-2.3,2.3l-3.9,3.9h1.2l3.3-3.3l2.1-2.1C43,15.5,42.9,15.3,42.7,15z"/>
		<path class="st0" d="M43.6,16.5L39,21.1h1.2l3.8-3.8C43.9,17.1,43.8,16.8,43.6,16.5z"/>
		<path class="st0" d="M44.4,18.2l-3,3h1.2l2.1-2.1C44.6,18.8,44.5,18.5,44.4,18.2z"/>
		<polygon class="st0" points="44.9,20 44.9,20 43.8,21.1 43.8,21.1 		"/>
		<path class="st0" d="M43.8,21.1H45l0.1-0.1c0-0.1,0-0.5-0.1-1L43.8,21.1z"/>
	</g>
</g>
</svg>
