<?xml version="1.0" encoding="utf-8"?>
<!-- Generator: Adobe Illustrator 23.1.0, SVG Export Plug-In . SVG Version: 6.00 Build 0)  -->
<svg version="1.1" id="Слой_1" xmlns="http://www.w3.org/2000/svg" xmlns:xlink="http://www.w3.org/1999/xlink" x="0px" y="0px"
	 viewBox="0 0 78.1 89.9" style="enable-background:new 0 0 78.1 89.9;" xml:space="preserve">
<style type="text/css">
	.st0{fill:#A5A5A5;}
</style>
<g id="Ico_9_">
	<path class="st0" d="M70.4,15.8c0,0,8.3,40.5-17,46.6c0,0-3.1,7.3-9.8,12.6c0,0,2.4,10.5,2.7,10.8c0,0,13.1-0.1,13.7,3.1
		c0,0-8.6-1.8-9.7-1.8c0,0,4.1,0.7,4.7,2.8c0,0-6.6-2.9-10.1-1.8c0,0,0.4,1.1-0.4,1.2c0,0-1.2-1.4-1.7-2.5c-0.5-1.2-1.8-9.3-2-10.6
		s-5.6-2.2-6.9-4.3c0,0-0.9,10.1,0.6,12.7c0,0,7.4,0.9,7.6,2.1c0,0-5.2-1-5.8-0.5c0,0,3.1,1.8,3.5,2.8c0,0-6.5-2.9-7.6-2.5
		c0,0-3.5,1.3-3.9,1.8l0.1-1c0.1-0.7,0.4-1.4,0.7-2c1.1-1.7,1-2.2,1.2-2.7c0.3-0.8,0.7-8.9,0.5-9.6s-3.9-1.4-4-5
		c0,0-13.6,2.9-9.6-16.7c0,0-4.7-1.4-7-5.3C7.9,42.1-0.1,27.2,0,25s1.4-4.4,4.3-4c2.9,0.4,14.9,6.9,18.2,7.9c3.4,1,18,1.5,22.9,0.1
		s7.7-5.3,9.9-11c2.1-5.7,5.4-11.2,11.2-13.5c0,0-0.5-2.4-0.8-3c0,0,1.2-0.2,1.7,0c0,0,1-1.2,1.1-1.5c0,0,0.1,1.2,0.6,1.7
		c0,0,0.6,0,1.1-0.6c0,0-0.2,1.2,0,1.5c0,0,1.4,0.2,1.8-0.3c0,0-0.2,0.6,0,1.1c0,0,1.1,0.4,1.8,0c0,0-0.2,0.9,0,1.6
		c0,0,1.8,0.8,1.7,3.2c0,0,2.1,0.6,2.6,2.6c0,0-2.7,0.2-3.6,0.1C74.5,10.8,74.4,18.7,70.4,15.8z"/>
</g>
</svg>
