<?xml version="1.0" encoding="utf-8"?>
<!-- Generator: Adobe Illustrator 23.1.0, SVG Export Plug-In . SVG Version: 6.00 Build 0)  -->
<svg version="1.1" id="Слой_1" xmlns="http://www.w3.org/2000/svg" xmlns:xlink="http://www.w3.org/1999/xlink" x="0px" y="0px"
	 viewBox="0 0 41.4 50" style="enable-background:new 0 0 41.4 50;" xml:space="preserve">
<style type="text/css">
	.st0{fill:#A5A5A5;}
</style>
<g id="Ico_13_">
	<g id="Txt_8_">
		<path class="st0" d="M14.5,24.2c-0.1,0-0.2-0.1-0.2-0.2v-7.7c0-0.2,0.1-0.2,0.2-0.2h1.2c0.1,0,0.2,0.1,0.2,0.2v3H18v-3
			c0-0.1,0-0.1,0.1-0.2c0,0,0.1-0.1,0.2-0.1h1.2c0.1,0,0.2,0.1,0.2,0.2v7.7c0,0.2-0.1,0.2-0.2,0.2h-1.1c-0.2,0-0.2-0.1-0.2-0.2v-3.2
			h-2.1v3.2c0,0.2-0.1,0.2-0.2,0.2h-1.4V24.2z"/>
		<path class="st0" d="M20.5,24.2c-0.1,0-0.2-0.1-0.1-0.2l2.1-7.7c0-0.1,0.1-0.2,0.3-0.2h1.1c0.1,0,0.2,0.1,0.3,0.2l2.1,7.7
			c0,0.2,0,0.2-0.1,0.2h-1.3c-0.2,0-0.2-0.1-0.3-0.2l-0.2-1.1h-2.1L22.1,24c0,0.1-0.1,0.2-0.3,0.2H20.5z M22.6,21.5H24l-0.6-2.7
			L23.3,18l-0.1,0.8L22.6,21.5z"/>
		<path class="st0" d="M2.7,37.2c-0.8,0-1.5-0.3-2-0.9c-0.5-0.5-0.7-1.2-0.7-2v-2.7c0-0.8,0.2-1.5,0.7-2c0.5-0.6,1.2-0.9,2-0.9
			c0.9,0,1.5,0.3,2,0.9c0.5,0.5,0.7,1.2,0.7,2v2.7c0,0.8-0.2,1.5-0.7,2C4.2,36.9,3.6,37.2,2.7,37.2z M2.7,35.6
			c0.4,0,0.6-0.1,0.8-0.4c0.2-0.2,0.3-0.5,0.3-0.9v-3c0-0.4-0.1-0.6-0.3-0.9C3.3,30.2,3,30,2.7,30s-0.6,0.1-0.8,0.4
			c-0.2,0.2-0.3,0.5-0.3,0.9v3c0,0.4,0.1,0.6,0.3,0.9S2.4,35.6,2.7,35.6z"/>
		<path class="st0" d="M6.2,39.1H6.1V39v-3.2c0-0.1,0.1-0.2,0.2-0.2h0.4c0.2-0.4,0.4-1,0.5-1.7c0.1-0.6,0.2-1.4,0.2-2.3
			c0-0.7,0.1-1.5,0.1-2.5c0-0.1,0-0.2,0.1-0.2h4.1h0.1V29v6.5h0.5c0.1,0,0.1,0,0.1,0s0,0.1,0,0.2v3.2c0,0.1-0.1,0.2-0.1,0.2h-1.2
			C11,39.1,11,39,11,38.9V37H7.5v1.9c0,0.1-0.1,0.2-0.2,0.2H6.2z M8.2,35.5h1.9v-5.1H8.8c0,1-0.1,2-0.2,2.9
			C8.6,34.1,8.4,34.9,8.2,35.5z"/>
		<path class="st0" d="M13.6,37c-0.2,0-0.2-0.1-0.2-0.2v-7.7c0-0.1,0.1-0.2,0.2-0.2h1.1c0.1,0,0.2,0.1,0.2,0.2v4.3v0.5l0.2-0.5
			l2.2-4.3c0.1-0.1,0.2-0.2,0.3-0.2h1.1c0.1,0,0.2,0.1,0.2,0.2v7.7c0,0.2-0.1,0.2-0.2,0.2h-1.1c-0.1,0-0.2-0.1-0.2-0.2v-4.2v-0.5
			l-0.2,0.5L15,36.8c-0.1,0.1-0.2,0.2-0.3,0.2H13.6z"/>
		<path class="st0" d="M20.5,37c-0.1,0-0.2-0.1-0.2-0.2v-7.7c0-0.2,0.1-0.2,0.2-0.2h1.2c0.1,0,0.2,0.1,0.2,0.2v3H24v-3
			c0-0.1,0-0.1,0.1-0.2c0,0,0.1-0.1,0.2-0.1h1.2c0.1,0,0.2,0.1,0.2,0.2v7.7c0,0.2-0.1,0.2-0.2,0.2h-1.1c-0.2,0-0.2-0.1-0.2-0.2v-3.2
			h-2.1v3.2c0,0.2-0.1,0.2-0.2,0.2h-1.4V37z"/>
		<path class="st0" d="M4.3,50C4.1,50,4,49.9,4,49.8v-1c0-0.1,0-0.1,0.1-0.1l0.1-0.1c0.2,0,0.4-0.1,0.5-0.2s0.2-0.3,0.3-0.6l0.1-0.4
			l-1.9-5.3c-0.1-0.2,0-0.3,0.2-0.3h1.2c0.1,0,0.2,0.1,0.3,0.2l1,3.7l1-3.7c0-0.1,0.1-0.2,0.3-0.2h1.2c0.1,0,0.2,0,0.2,0.1
			s0,0.1,0,0.2l-1.9,5.7l0,0l-0.2,0.7c-0.2,0.6-0.5,1-1,1.2C5,49.9,4.6,50,4.3,50z"/>
		<path class="st0" d="M9.5,49.8H9.4c-0.1,0-0.1-0.1-0.1-0.2v-7.7c0-0.2,0.1-0.2,0.2-0.2h1.2c0.1,0,0.2,0.1,0.2,0.2v3.2
			c0.1,0,0.2-0.1,0.3-0.2c0.1-0.1,0.2-0.2,0.2-0.3l0.8-1.8c0.2-0.4,0.5-0.7,0.9-0.9c0.3-0.1,0.6-0.2,1-0.2c0,0,0,0,0.1,0
			c0,0,0.1,0.1,0.1,0.2V43c0,0.1-0.1,0.2-0.2,0.2c-0.2,0-0.4,0.2-0.6,0.6l-0.6,1.4v0.1c0,0.1-0.1,0.2-0.1,0.3v0.1l2,3.9
			c0,0.1,0,0.1,0,0.2c0,0.1-0.1,0.1-0.1,0.1h-1.4c-0.1,0-0.2-0.1-0.3-0.2l-1.3-2.9c-0.1,0-0.1,0.1-0.2,0.1c-0.1,0-0.2,0.1-0.2,0.1
			v2.7v0.1l-0.1,0.1H9.5V49.8z"/>
		<path class="st0" d="M15.9,50c-0.2,0-0.3-0.1-0.3-0.2v-1c0-0.1,0-0.1,0.1-0.1l0.1-0.1c0.2,0,0.4-0.1,0.5-0.2s0.2-0.3,0.3-0.6
			l0.1-0.4l-1.9-5.3c-0.1-0.2,0-0.3,0.2-0.3h1.2c0.1,0,0.2,0.1,0.3,0.2l1,3.7l1-3.7c0-0.1,0.1-0.2,0.3-0.2H20c0.1,0,0.2,0,0.2,0.1
			s0,0.1,0,0.2l-1.9,5.7l0,0l-0.2,0.7c-0.2,0.6-0.5,1-1,1.2C16.7,49.9,16.3,50,15.9,50z"/>
		<path class="st0" d="M23.2,50c-0.8,0-1.4-0.3-1.9-0.8s-0.7-1.2-0.7-2v-2.9c0-0.8,0.2-1.5,0.7-2s1.2-0.8,2-0.8s1.5,0.3,2,0.8
			c0.2,0.2,0.4,0.5,0.5,0.8s0.2,0.5,0.2,0.8v0.3c0,0.1,0,0.2-0.1,0.2h-1.2c-0.1,0-0.2,0-0.2-0.2v-0.1c0-0.3-0.1-0.6-0.3-0.8
			S23.7,43,23.4,43s-0.6,0.1-0.8,0.4c-0.2,0.2-0.3,0.5-0.3,0.9v3c0,0.4,0.1,0.7,0.3,0.9s0.5,0.4,0.8,0.4s0.6-0.1,0.8-0.3
			s0.3-0.5,0.3-0.8v-0.2c0-0.1,0.1-0.2,0.2-0.2h1.2c0.1,0,0.2,0.1,0.2,0.3v0.1c0,0.8-0.3,1.5-0.8,2C24.6,49.8,24,50,23.2,50z"/>
	</g>
	<g id="Ico_21_">
		<path class="st0" d="M33.6,49.9c-0.3,0-0.6-0.3-0.6-0.6V34.9c-0.8-0.1-1.5-0.5-2-1c-1.5-1.6-1.4-4.4-1.4-4.5V16.6
			c0-0.3,0.3-0.6,0.6-0.6s0.6,0.3,0.6,0.6v12.8c0,0.1-0.1,2.4,1.1,3.6c0.5,0.5,1,0.7,1.8,0.7h0.6v15.5
			C34.2,49.6,33.9,49.9,33.6,49.9z"/>
		<path class="st0" d="M33.6,30.1c-0.3,0-0.6-0.3-0.6-0.6V16.7c0-0.3,0.3-0.6,0.6-0.6s0.6,0.3,0.6,0.6v12.8
			C34.2,29.8,33.9,30.1,33.6,30.1z"/>
		<path class="st0" d="M37,30.1c-0.3,0-0.6-0.3-0.6-0.6V16.7c0-0.3,0.3-0.6,0.6-0.6s0.6,0.3,0.6,0.6v12.8
			C37.6,29.8,37.3,30.1,37,30.1z"/>
		<path class="st0" d="M37.1,49.9c-0.3,0-0.6-0.3-0.6-0.6V33.8h0.6c0.7,0,1.3-0.2,1.8-0.7c1.2-1.2,1.1-3.6,1.1-3.6V16.6
			c0-0.3,0.3-0.6,0.6-0.6s0.6,0.3,0.6,0.6v12.8c0,0.1,0.1,2.9-1.4,4.4c-0.5,0.6-1.2,0.9-2,1v14.4C37.7,49.6,37.5,49.9,37.1,49.9z"/>
		<path class="st0" d="M35.3,0c-3.4,0-6.1,2.7-6.1,6.1c0,3.4,2.7,6.1,6.1,6.1s6.1-2.7,6.1-6.1C41.4,2.7,38.6,0,35.3,0z M35.7,1.6
			c2.2,0,4,1.8,4,4C39.8,5.9,35.4,1.6,35.7,1.6z"/>
	</g>
</g>
</svg>
