<?xml version="1.0" encoding="utf-8"?>
<!-- Generator: Adobe Illustrator 23.1.0, SVG Export Plug-In . SVG Version: 6.00 Build 0)  -->
<svg version="1.1" id="Слой_1" xmlns="http://www.w3.org/2000/svg" xmlns:xlink="http://www.w3.org/1999/xlink" x="0px" y="0px"
	 viewBox="0 0 80.02 89.98" style="enable-background:new 0 0 80.02 89.98;" xml:space="preserve">
<style type="text/css">
	.st0{fill:#A5A5A5;}
</style>
<path id="Ico_11_" class="st0" d="M78,46.9L78,46.9c0.1-0.1,0.1-0.1,0.1-0.1l0.1-0.1l0,0c0,0,0-0.1,0.1-0.1c1.5-2.1,1.8-4.7,1.7-5.6
	c0,0,0,0-0.1,0c0.1,0,0.1,0,0.1,0s-0.5-0.9-4.2-0.5c-2,0.2-3.7,1.1-4.8,1.8c1.7-1.5,1.3-2.1,1.3-2.1c-3.4-0.2-6.4,1.9-8.1,3.4
	c2.5-2.7,1.4-3.4,1.4-3.4s-1.9-0.2-6.2,2.4c-0.8,0.5-1.8,1.2-2.8,2c-2.5,2-4.9,4.3-7,6.4c-2.5,2.4-5,4.7-7.1,6.2
	c0.7-1.2,1.5-2.3,2.2-3.5c1.9-2.9,4.8-7,6.9-9.1c0.1-0.1,0.2-0.2,0.3-0.2c0.1-0.1,0.2-0.2,0.3-0.3c4-3.4,12.7-7.3,13-9.4l0,0
	c-0.1-0.2-0.8-0.9-2.4-0.6l0,0c-1.4,0-2.4,0.5-2.8,0.8c0.6-0.4,2.6-1.6,3.9-2.8c1.5-1.3,1.7-2.9,1.6-3.4v-0.1c-0.1-0.3-1-0.2-1.7,0
	c-0.2,0-0.3,0.1-0.5,0.1c-0.1,0-0.2,0-0.2,0.1c0,0,1.2-1.9,1.7-3.5c0.4-1.6,0.1-2.4,0-2.5s-3.1-0.3-6.7,2.3c0,0,0.6-0.4,0.8-1.4
	c0.2-0.9-0.1-1.4-0.1-1.4s-1.9,0.9-4.1,2.9c-0.3,0.3-0.6,0.6-0.9,0.9l0,0c-0.4,0.4-0.8,0.9-1.2,1.3c-1.3,1.6-2.3,2.9-2.9,4l0,0
	c1.9-3.6,3.8-4.7,6-9.2s1.3-5.8,1.3-5.8s0,0-0.1,0c-3.3-1.1-7.4,3.7-7.6,4c0.2-0.2,2.8-3.4,4-6.3V14c0-0.1,0-0.1,0.1-0.2
	c0,0,0,0,0-0.1c0.1-0.1,0.1-0.3,0.2-0.4v-0.1l0,0l0,0c0.1-0.2,0.1-0.4,0.2-0.6c0-0.1,0-0.1,0.1-0.2v-0.1c0.3-1.1,0.4-1.9,0.4-2.5
	c0-0.8,0-1.4-0.1-1.5s-0.3,0-0.5,0.1c-1.6,0.5-3.1,2.3-3.1,2.3s1.6-3.1,0.9-6.4l0,0c-0.2-1.2-0.5-2.4-1.3-3.5
	C49.8,0.2,49.6,0,49.6,0s-2.9,0.4-5.1,2.9l0,0c-1.2,1.3-1.7,2.7-2,3.8c0,0.1-0.1,0.2-0.1,0.3c0,0-0.4-2.9-2.5-3.2
	c0,0-1.5,1.3-1.6,3.8c0,0.4,0,0.7,0,1.1l0,0v0.1c0,1.6,0.3,3.3,0.3,3.8c-0.1-0.5-0.5-2.1-1.9-3.6c-1.7-1.8-3.9-1.5-3.9-1.5
	c0.1,0,0.1,0,0.2,0c-0.1,0-0.1,0-0.2,0c0,0-1.7,2.6-1.6,7.1c0.1,4.5,1.4,10.4,1.2,12.5c0,0-1.7-6.4-4.3-10.2
	c-2.7-3.8-5.6-3.6-5.6-3.6s-1.2,0.9-1.8,2.9c-0.1,0.5-0.3,1-0.3,1.6c-0.3,3,0.9,6.3,0.9,6.3s-1.3-1.7-3.4-1.6
	c-0.4,0-0.6,0.1-0.6,0.1s0,0.1,0,0.2c-0.1,0.6-0.5,3.1,1.2,6.6l0,0c0,0.1,0.1,0.2,0.1,0.3c0.3,0.6,0.6,1.2,1.1,1.9
	c1.4,2.3,3.2,4.7,4.8,6.8c0.7,0.9,1.4,1.9,2,2.9s1.2,1.8,1.7,2.5c1,1.6,1.8,3.1,2.4,4.4c0.2,0.6,0.4,1.1,0.5,1.6
	c0.2,0.7,0.4,1.4,0.5,2.2l0,0c-1.2-2.2-2.6-4.6-4.2-7c-1.2-1.9-2.5-3.9-4-6l0,0c-1.2-1.7-2.3-3.2-3.1-4.5c-0.3-0.5-0.6-0.9-0.9-1.2
	c-1.3-1.7-2.2-2.7-3.3-3.1C15.4,29.8,15,30,15,30s-1.3,0.9-0.2,4.2c0.2,0.5,0.3,0.9,0.5,1.2l-0.1-0.1c-0.8-1.2-3.2-4.4-6.3-5
	c-0.4-0.1-0.6-0.1-0.6-0.1s-0.7,0.7,0.3,3c0,0-0.3-0.3-0.8-0.7c-4.6-4-7.5-3.3-7.5-3.3s-0.6,1,0.3,3.3C1.4,34.7,4,37.3,4,37.3l0,0
	l0.1,0.1c0,0-2.2-1.4-3.8-1.2c-0.1,0-0.2,0.1-0.2,0.4C0,37.1,0,38.1,1.3,39.7C3.2,42.1,7.6,44,7.7,44c-0.3-0.1-1.1-0.4-2.5-0.4
	c-0.5,0-1.1,0-1.7,0c-0.1,0-0.1,0-0.2,0l0,0c-1.5,0.1-2.4,0.5-2.8,0.7c-0.3,0.2-0.4,0.3-0.5,0.5v0.1l0,0c0,0,0.1,2.1,4.3,4.6
	c3.4,2,8.1,2.9,9.6,3.1c0.3,0.1,0.6,0.1,0.6,0.2c-1.5-0.3-5.9-1-8.7-0.4l0,0c-0.5,0.1-0.9,0.2-1.3,0.3c-0.1,0-0.3,0.1-0.4,0.1
	c-2.3,0.8-3.7,2.1-4,3.1c0,0,0.1,1.7,2.9,3.1c0.9,0.5,1.9,0.7,2.8,0.8c0.9,0.1,1.5,0.1,1.5,0.1c-2,0.7-2.6,1.9-2.7,2.3
	c0,0.1-0.1,0.2,0,0.2c0,0,0.8,1.3,3.7,1c2.8-0.3,8.6-2.5,14.4-1.7l0,0c0.1,0,0.2,0,0.3,0c0.3,0.1,0.7,0.1,1,0.2c0.1,0,0.1,0,0.2,0
	c0.4,0.1,0.7,0.2,1,0.4c1.5,0.6,2.8,1.4,3.8,2.1c2.4,1.8,3.9,3.8,3.9,3.8c0.1,0.1,0.1,0.1,0.1,0.1c0,0.1,0,0.3,0,0.5
	c0,1.4,0,4,0.3,7.4c0.2,3.8,0.7,7.9,1.3,9.7c0.3,0.9,0.5,1.6,0.7,2.1c0.2,0.7,0.4,1.1,0.5,1.3l0,0c0,0,0,0,0.1,0.1c0,0,0,0,0.1,0.1
	c0.3,0.3,1.1,0.9,1.7,0c0,0-1.8-8.1-2.4-13c-0.2-2.6,0-5,0.4-6.9c0.2-0.1,0.9-0.6,2.7-1c1.3-0.2,3.3-0.4,6.1-0.3
	c2.5,0.1,4.7,0.4,6.4,0.8c2.2,0.5,4.2,1.2,5.8,1.9c1,0.4,1.2,0.5,1.2,0.5l0,0c0,0,3.5,1.9,5.1,2.3l0,0c1.4,0.3,2.4,0.2,2.4,0.2
	s-0.3-0.5-0.8-1s-1.2-1.2-1.8-1.4c0.6,0.2,3.6,0.9,7,0l0,0c0.7-0.1,1.4-0.4,2-0.6c2-0.8,2.3-1.5,2.3-1.5s-0.2-3-3.8-4.7l0,0
	c-0.8-0.4-1.5-0.7-2.3-0.9c-2.1-0.7-3.5-0.7-3.9-0.7c0.8,0,6.4-0.3,9.7-1.5c3.9-1.3,4.6-3.3,4.6-3.3s-0.5-1.9-3.3-2.5l0,0H75h-0.1
	c-0.5-0.1-1.1-0.2-1.5-0.2c-2.2-0.2-2.7,0-3.1-0.1l0,0c0.1-0.2,2.8-0.9,5.1-2.2l0,0c2.7-1.6,3.2-3,3-3.9c0-0.1,0-0.1,0-0.1
	s-0.2-0.1-0.6-0.1c-0.5,0-1.4,0-2.4,0.3C75.7,49,77,48.2,78,46.9z"/>
</svg>
