<?xml version="1.0" encoding="utf-8"?>
<!-- Generator: Adobe Illustrator 23.1.0, SVG Export Plug-In . SVG Version: 6.00 Build 0)  -->
<svg version="1.1" id="Слой_1" xmlns="http://www.w3.org/2000/svg" xmlns:xlink="http://www.w3.org/1999/xlink" x="0px" y="0px"
	 viewBox="0 0 44.52 50.27" style="enable-background:new 0 0 44.52 50.27;" xml:space="preserve">
<style type="text/css">
	.st0{fill:#A5A5A5;}
</style>
<g id="Ico_7_">
	<path class="st0" d="M11.53,15.67c2.5-0.1,4.8-1.6,5.6-3.9c0.9-2.4,0.1-5.1-1.8-6.7c-1.9-1.6-4.7-1.8-6.8-0.5
		c-2.2,1.3-3.3,3.8-2.9,6.3C6.13,13.67,8.63,15.67,11.53,15.67z M11.53,4.67c2.8,0,5.1,2.3,5.1,5.1c0,2.8-2.3,5-5.1,5.1
		c-2.8-0.1-5.1-2.3-5.1-5.1S8.73,4.67,11.53,4.67z"/>
	<path class="st0" d="M22.53,28.17v-0.1c-1.1-2.6-2.2-5.1-3.2-7.7c-0.4-0.9-0.7-2.1-1.3-2.8c-0.8-0.8-2.1-1-3.2-1.2
		c-1.6-0.3-3.3-0.4-4.9-0.3c-1.8,0.2-4.7,0.3-5.6,2.2c-0.5,1.2-1,2.4-1.5,3.6c-0.7,1.6-1.3,3.1-2,4.7c-0.5,1.2-1.1,2.3-0.7,3.6
		c0.3,1,1.3,1.8,2.4,1.7c0.9-0.1,1.3-0.8,1.6-1.6c0.3-0.7,0.6-1.5,1-2.2c0,2.9,0,5.9,0,8.8c0,2.5,0,4.9,0,7.4c0,1.2-0.2,2.6,0.1,3.8
		c1,3.3,5.9,2.5,6-0.9c0.1-1.8,0-3.6,0-5.4c0-2.3,0-4.6,0-6.9c0-0.1-0.1-0.5,0-0.6c0.3-0.5,0.5-0.1,0.6,0.1c0.2,0.7,0,1.7,0,2.4
		c0,2.8,0,5.6,0,8.4c0,0.7,0,1.4,0,2.1c0.1,1.7,1.3,2.9,2.9,3h0.1h0.1c1.9-0.1,2.9-1.6,2.9-3.4c0-1.4,0-2.8,0-4.3
		c0-4.3,0-8.5,0-12.8c0-0.3,0-0.6,0-0.9c0.3,0.7,0.6,1.3,0.9,2c0.5,1,1.5,1.5,2.6,1C22.63,31.17,23.03,29.47,22.53,28.17
		C22.53,28.07,22.53,28.17,22.53,28.17z M21.33,30.57c-0.5,0.5-1.1,0.7-1.6,0.1c-0.3-0.3-0.5-0.9-0.7-1.4c-0.4-1-0.9-2.1-1.3-3.1
		c-0.2-0.4-0.8-0.2-0.8,0.2c0,6.4,0,12.8,0,19.1c0,1.6,0.1,3.6-2.1,3.7c-2.7-0.1-2.1-3.1-2.1-4.9c0-2.5,0-5,0-7.4c0-1,0.5-4-1.3-3.9
		c-0.9,0.1-1.1,0.8-1.1,1.5c0,0.9,0,1.7,0,2.6c0,2.5,0,4.9,0,7.4c0,0.8,0,1.6,0,2.4c0,1.5-1.2,2.7-2.7,2.2c-1.9-0.5-1.5-2.6-1.5-4.1
		c0-2.3,0-4.5,0-6.8c0-4.2,0-8.3,0-12.5c0-0.4-0.7-0.7-0.8-0.2c-0.5,1.1-0.9,2.2-1.4,3.3c-0.2,0.4-0.3,0.8-0.5,1.2
		c-0.8,1.7-2.5,0.5-2.4-1c0-0.9,0.6-1.8,0.9-2.6c0.6-1.4,1.2-2.9,1.8-4.3c0.5-1.1,0.9-2.2,1.4-3.3c0.3-0.6,0.6-1.1,1.3-1.3
		c1.2-0.4,2.6-0.6,3.9-0.7c1.5-0.1,3,0,4.5,0.3c1.1,0.2,2.4,0.3,2.9,1.3c0.4,0.7,0.6,1.5,1,2.3c1,2.5,2.1,4.9,3.1,7.4l0,0
		C21.93,29.07,21.93,29.97,21.33,30.57z"/>
	<path class="st0" d="M44.33,27.57c-1-2.6-2-5.2-2.9-7.8c-0.3-0.9-0.6-1.9-1.1-2.8c-0.6-1-1.8-1.2-2.9-1.4c-1.6-0.3-3.2-0.5-4.8-0.3
		c-1.9,0.2-4.5,0.4-5.3,2.3c-0.5,1.2-0.9,2.4-1.4,3.6c-0.6,1.6-1.2,3.2-1.8,4.8c-0.5,1.2-1.1,2.4-0.6,3.7c0.3,0.9,1.1,1.8,2.2,1.7
		c0.9-0.1,1.4-0.9,1.7-1.7c0.3-0.7,0.5-1.3,0.8-2c0,0.3,0,0.6-0.1,0.8c-0.2,1-0.4,2-0.6,3c-0.5,2.4-1.1,4.9-1.5,7.3
		c-0.1,0.9,0.3,1.8,1.2,1.9c0.5,0,1,0,1.5,0c0,1.1,0,2.2,0,3.3c0,1.3-0.2,2.8,0.1,4c0.6,2.1,3.2,2.9,4.4,0.8
		c0.7-1.2,0.5-2.8,0.5-4.1c0-1.3,0-2.7,0-4c0.3,0,0.5,0,0.8,0c0,1.1,0,2.2,0,3.3c0,1.3-0.2,2.8,0.1,4c0.6,2.1,3.2,2.9,4.4,0.8
		c0.7-1.2,0.5-2.8,0.5-4.1c0-1.3,0-2.7,0-4c1.1,0,2.5,0.2,2.8-1.2c0.1-0.8-0.2-1.7-0.4-2.5c-0.6-2.7-1.1-5.4-1.7-8.1
		c0-0.1,0-0.1,0-0.2c0.2,0.5,0.4,0.9,0.6,1.4c0.4,1,1.4,1.6,2.4,1.1C44.53,30.57,44.73,28.87,44.33,27.57z M32.83,46.97
		c0,0.8-0.2,1.7-1,2.1c-1.3,0.7-2.1-0.9-2.2-2c0-1.1,0-2.1,0-3.2c0-1,0-2.1,0-3.1c1.1,0,2.1,0,3.2,0
		C32.83,42.77,32.83,44.87,32.83,46.97z M38.53,46.97c0,0.8-0.2,1.7-1,2.1c-1.3,0.7-2.1-0.9-2.2-2c0-1.1,0-2.1,0-3.2
		c0-1,0-2.1,0-3.1c1.1,0,2.1,0,3.2,0C38.53,42.77,38.53,44.87,38.53,46.97z M43.33,29.87c-0.3,0.5-0.9,0.9-1.4,0.5
		c-0.4-0.3-0.6-1-0.7-1.5c-0.4-1-0.8-2-1.2-3.1c-0.2-0.5-0.9-0.4-0.9,0.1c0,1.1-0.1,2.2,0.2,3.3c0.3,1.4,0.6,2.9,0.9,4.3
		c0.3,1.6,0.7,3.2,1,4.8c0.1,0.4,0.4,1.3-0.2,1.5c-0.5,0.2-1.4,0-2,0c-1.4,0-2.7,0-4.1,0c-0.6,0-1.1,0-1.7,0c-1.4,0-2.7,0-4.1,0
		c-0.5,0-1.1,0.1-1.7,0c-0.4-0.1-0.6-0.2-0.7-0.7c0-0.1,0-0.2,0.1-0.3c0.1-1.1,0.4-2.1,0.7-3.2c0.5-2.3,1-4.5,1.4-6.8
		c0.2-1.1,0.1-2.3,0.1-3.5c0-0.5-0.7-0.6-0.9-0.1c-0.4,1.1-0.8,2.2-1.3,3.3c-0.2,0.4-0.3,0.9-0.5,1.3c-0.3,0.5-0.7,0.9-1.3,0.6
		c-0.8-0.4-1-1.6-0.8-2.4s0.6-1.5,0.8-2.3c0.5-1.4,1.1-2.8,1.6-4.2c0.4-1.1,0.9-2.3,1.3-3.4c0.2-0.5,0.4-1,1-1.2
		c1.1-0.5,2.5-0.7,3.7-0.8c1.5-0.1,2.9,0,4.3,0.3c1,0.2,2,0.3,2.5,1.3c0.4,0.8,0.6,1.7,1,2.6c0.9,2.5,1.9,5,2.8,7.5
		C43.73,28.47,43.73,29.17,43.33,29.87z"/>
	<path class="st0" d="M27.53,8.37c0.2,0.1,0.4,0.2,0.6,0.2c-0.1,1.3,0.5,2.8,1.2,3.7c0.9,1.2,2.2,2.1,3.6,2.3c3.6,0.7,6.9-2.1,7-5.8
		c0-0.1,0-0.2,0-0.3c1.6-0.1,4.1-2.9,2.6-4c-0.1-0.1-0.1-0.1-0.2-0.1c-0.7-0.3-1.3-0.6-2-0.8c-0.2-0.1-0.5-0.2-0.6-0.3
		c-0.2-0.2-0.3-0.7-0.4-1c-0.2-0.6-0.4-1.5-0.9-2c-0.8-0.8-2.3,0.4-2.8,1c-0.4,0.4-0.9,1-1.1,1.6c-0.3,0-0.6,0-1,0
		c0,0,0-0.1-0.1-0.1c-0.5-1.2-1.5-2.3-2.7-2.7c-0.9-0.3-1.2,0.4-1.5,1.1c-0.2,0.4-0.3,0.8-0.5,1.3c-0.1,0.2-0.1,0.4-0.2,0.5
		c0,0.1-0.2,0.4-0.1,0.2c0,0.1-0.1,0.2-0.1,0.2c-0.1,0.1-0.3,0.1-0.4,0.2c-0.5,0.2-0.9,0.4-1.4,0.6c-0.6,0.3-1.5,0.5-1.4,1.3
		C25.33,6.77,26.53,7.87,27.53,8.37z M36.03,2.37c0.4-0.5,0.8-0.9,1.4-1.2c0.5-0.2,0.4-0.3,0.5,0.1c0.2,0.3,0.3,0.7,0.4,1
		c0.2,0.4,0.3,1,0.6,1.4c0.4,0.6,0.9,0.7,1.5,0.9c0.6,0.2,1.1,0.5,1.7,0.7c0.3,0.2-0.8,1.4-0.9,1.6c-0.2,0.2-1.1,0.9-1.4,0.8
		c-0.2-0.6-0.5-1.2-0.8-1.8c-0.2-0.4-0.3-0.8-0.5-1.1c-0.3-0.4-0.8-0.5-1.2-0.7c-0.3-0.1-0.6-0.3-0.9-0.4l0,0
		c-0.2-0.1-0.3-0.1-0.5-0.2c-0.1-0.1-0.2-0.1-0.3-0.2C35.43,3.17,35.83,2.67,36.03,2.37z M34.73,3.97L34.73,3.97
		c0.1,0.1,0.1,0.1,0.2,0.2c0.5,0.4,1.4,0.6,2,0.9s0.9,0.5,1.2,1.1s0.5,1.3,0.8,1.9c0,0,0,0,0,0.1c0.1,0.3,0.1,0.6,0.1,0.8
		c-0.1,3.1-3,5.6-6.1,4.8c-2.4-0.6-4.7-3.4-3.6-5.9l0,0l0,0c0.3-0.6,0.5-1.4,0.8-2l0.1-0.1c0.1-0.2,0.3-0.3,0.5-0.5
		c0.4-0.2,0.8-0.3,1.2-0.5s0.9-0.3,1.3-0.6C33.73,3.97,34.23,3.77,34.73,3.97z M26.03,5.37l0.2-0.1c0.2-0.2,0.6-0.3,0.9-0.4
		c1.1-0.4,1.9-0.6,2.3-1.7c0.2-0.4,0.3-0.7,0.5-1.1c0.1-0.2,0.2-0.8,0.4-1s0.9,0.4,1.2,0.6c0.5,0.4,0.9,1,1.2,1.7l0,0
		c-0.3,0.2-0.8,0.4-1.2,0.6c-0.3,0.1-0.6,0.3-0.9,0.4c-0.3,0.1-0.6,0.2-0.7,0.3c-0.3,0.2-0.4,0.5-0.6,0.8c-0.4,0.7-0.7,1.5-1,2.3
		c0,0,0,0-0.1,0c-0.2,0-0.5-0.3-0.7-0.4c-0.5-0.3-1-0.8-1.3-1.3C26.33,5.87,26.03,5.47,26.03,5.37z"/>
</g>
</svg>
