<?xml version="1.0" encoding="utf-8"?>
<!-- Generator: Adobe Illustrator 23.1.0, SVG Export Plug-In . SVG Version: 6.00 Build 0)  -->
<svg version="1.1" id="Слой_1" xmlns="http://www.w3.org/2000/svg" xmlns:xlink="http://www.w3.org/1999/xlink" x="0px" y="0px"
	 viewBox="0 0 79.1 50" style="enable-background:new 0 0 79.1 50;" xml:space="preserve">
<style type="text/css">
	.st0{fill:#A5A5A5;}
</style>
<path id="Ico_1_" class="st0" d="M16.1,50c7.8,0,14.4-5.6,15.9-12.9l4.4,0.5c0.1,0,0.1,0,0.2,0c0.4,0,0.7-0.2,0.9-0.5l19.2-22.6
	l1,3.9c-6.4,2.2-11,8.2-11,15.3c0,8.9,7.3,16.2,16.2,16.2s16.2-7.3,16.2-16.2s-7.3-16.2-16.2-16.2c-1,0-1.9,0.1-2.8,0.3L57.3,7h7.2
	c1.1,0,2,0.9,2,2s-0.9,2-2,2h-3c-0.7,0-1.2,0.6-1.2,1.2c0,0.7,0.6,1.2,1.2,1.2h3c2.5,0,4.5-2,4.5-4.5s-2-4.5-4.5-4.5h-8.8
	c-0.4,0-0.8,0.2-1,0.5S54.4,5.6,54.5,6l1.1,4.1H30.9l-0.8-2.9c-0.7-2.1-1.4-3.7-2.4-4.8h6.9c0.7,0,1.2-0.6,1.2-1.2S35.2,0,34.6,0
	H22.2C21.5,0,21,0.6,21,1.2s0.6,1.2,1.2,1.2h1.4c1.7,0.7,2.9,1.9,4.1,5.5l0.9,3.3l-4.9,8c-2.2-1.2-4.8-1.8-7.5-1.8
	C7.3,17.4,0,24.7,0,33.6C-0.1,42.7,7.1,50,16.1,50z M61.8,34.1c0.1,0.6,0.7,0.9,1.2,0.9c0.1,0,0.2,0,0.3,0c0.7-0.2,1.1-0.9,0.9-1.5
	l-3.5-13.2c0.7-0.1,1.4-0.2,2.2-0.2c7.6,0,13.7,6.2,13.7,13.7s-6.2,13.7-13.7,13.7c-7.6,0-13.7-6.2-13.7-13.7c0-5.9,3.8-11,9.1-12.9
	L61.8,34.1z M54.9,12.7L37,33.7l-5.6-21H54.9z M29.4,14.7l5.4,20.2l-2.5-0.3c0-0.3,0-0.5,0-0.8c0-5.4-2.6-10.1-6.6-13.1L29.4,14.7z
	 M24.4,22.8c3.3,2.5,5.5,6.5,5.5,10.9c0,0.2,0,0.3,0,0.5l-11.6-1.4L24.4,22.8z M16.1,20c2.2,0,4.3,0.5,6.2,1.5l-7.2,11.7
	C15,33.3,15,33.4,15,33.5s-0.1,0.1-0.1,0.2c0,0.1,0,0.1,0,0.2c0,0.1,0,0.2,0,0.3s0.1,0.1,0.1,0.2c0,0.1,0.1,0.2,0.1,0.2
	c0.1,0.1,0.1,0.1,0.2,0.2l0.1,0.1h0.1c0.1,0.1,0.2,0.1,0.4,0.1c0,0,0,0,0.1,0l13.5,1.6c-1.4,6.1-6.8,10.8-13.4,10.8
	c-7.6,0-13.7-6.2-13.7-13.7S8.5,20,16.1,20z"/>
</svg>
