<?xml version="1.0" encoding="utf-8"?>
<!-- Generator: Adobe Illustrator 23.1.0, SVG Export Plug-In . SVG Version: 6.00 Build 0)  -->
<svg version="1.1" id="Слой_1" xmlns="http://www.w3.org/2000/svg" xmlns:xlink="http://www.w3.org/1999/xlink" x="0px" y="0px"
	 viewBox="0 0 89.13 90" style="enable-background:new 0 0 89.13 90;" xml:space="preserve">
<style type="text/css">
	.st0{fill:#A5A5A5;}
</style>
<g id="Ico_10_">
	<path class="st0" d="M50.83,51.6c0,0-17.7-28.8,7.9-39.8c7.5-3.2,21.8-5.2,30.2-11.8c0,0,3.1,25.3-15,33.7
		c-15.1,7-21.8,3.7-21.8,3.7s4.4-14.7,25.9-24.2C77.93,13.2,40.03,21.5,50.83,51.6z"/>
	<path class="st0" d="M45.13,90c0,0,20.9-34-9.3-46.9c-8.8-3.8-25.7-6.1-35.6-14c0,0-3.6,29.8,17.7,39.7c17.8,8.2,25.7,4.3,25.7,4.3
		s-5.1-17.4-30.6-28.5C13.13,44.6,57.83,54.5,45.13,90z"/>
</g>
</svg>
