<?xml version="1.0" encoding="utf-8"?>
<!-- Generator: Adobe Illustrator 23.1.0, SVG Export Plug-In . SVG Version: 6.00 Build 0)  -->
<svg version="1.1" id="Слой_1" xmlns="http://www.w3.org/2000/svg" xmlns:xlink="http://www.w3.org/1999/xlink" x="0px" y="0px"
	 viewBox="0 0 84.23 90.11" style="enable-background:new 0 0 84.23 90.11;" xml:space="preserve">
<style type="text/css">
	.st0{fill-rule:evenodd;clip-rule:evenodd;fill:#A5A5A5;}
</style>
<path id="Ico_2_" class="st0" d="M40.8,81.01c-5.2,0.1-10.4,0.7-12.5,3.4c2.6,0.7,4.3,0.1,6.6-0.6c-1.2,1.7-1.7,1.9-2.2,4.3
	c3.3-0.2,4.1-1.5,6.3-2.7c0.3,2,0.2,3.4,1.4,4.7c2-0.9,1.2-3,1.7-5c2.2,0.5,3,3.1,6.7,2.9c-0.6-2.2-0.7-2.6-2-4.1
	c1.8,0.2,3.4,0.9,6.3,0.6C51.1,81.71,46,81.01,40.8,81.01z M25.6,75.31c-2.8-3.2-5.4-8-5.9-13.6c-1.5-18.1,11-31,12.9-46.5v-0.7
	h-0.7c-3.3,6.6-6.3,13.8-11.3,20.5c-4.9,6.5-10.4,11.5-11,20.7c-1,13.6,7.3,21.4,18.3,23C28.4,76.91,26.4,76.21,25.6,75.31z
	 M10.8,42.81c2.4-3.6,5.1-6.5,7.3-9.6c0.3,0,0.2-0.4,0.2-0.7h-0.7c-6.9,5.6-17.5,10.8-17.6,23.4c-0.1,8.1,5.1,13.7,10.1,17
	c-0.6-2.9-2-3.8-2.8-5.7C3.7,58.11,7,48.51,10.8,42.81z M43.9,0.41C43.9,0.31,44,0.31,43.9,0.41C43.9-0.19,43.9-0.09,43.9,0.41z
	 M84.2,55.81c-0.4-7.8-4.2-12.8-9.2-17.2c-4.9-4.3-14.2-15.1-18.6-18.6c1.2,4,7.1,13.4,9.6,16.7c2.6,3.4,4.4,6.6,3.6,9.2
	c-10.4-11.3-16.2-21.3-21.3-39c-0.6-2.2-0.9-4.9-2.6-6.8c-1.3,1.4-1.4,3.6-1.2,5.9c-0.1,0-0.1,0-0.2,0c-0.2-2.3-0.4-4.7-0.5-5.6
	c-0.2,0.3-1.1,1-1.1,1.1c-2.6-5-0.4,5.7-2.8-0.2c-2.5,0.6-2.5,3.8-2.8,5.9c-1.1,7.5-2.7,14.6-4.9,21.2c-3.7,10.9-9.7,18.8-8.7,32.4
	c0.3,4.8,2.2,9.4,5.2,12.7c2.5,2.8,7,6.3,11.5,6.3c1.4,0,2.6-0.5,3.8-1.4c17.8-23.4,6.6-45.5,6.6-45.5c6.4,11,9.2,27.1-0.5,46.3
	c8.3-1.5,18.9-10.7,22.9-16.6c-0.7,2.8-7,11.3-13.8,16.5C71.9,77.71,84.9,69.71,84.2,55.81z"/>
</svg>
