<?xml version="1.0" encoding="utf-8"?>
<!-- Generator: Adobe Illustrator 23.1.0, SVG Export Plug-In . SVG Version: 6.00 Build 0)  -->
<svg version="1.1" id="Слой_1" xmlns="http://www.w3.org/2000/svg" xmlns:xlink="http://www.w3.org/1999/xlink" x="0px" y="0px"
	 viewBox="0 0 53.65 50" style="enable-background:new 0 0 53.65 50;" xml:space="preserve">
<style type="text/css">
	.st0{fill:#A5A5A5;}
</style>
<g id="Icon_25_">
	<g id="Icon_28_">
		<path class="st0" d="M53.48,30.4c-0.2-1-0.7-1.9-1.4-2.6c0.2-1,0-2-0.5-2.9s-1.3-1.5-2.2-1.9c-0.2-1-0.7-1.9-1.5-2.5
			c-0.8-0.7-1.7-1-2.7-1c-0.5-0.9-1.3-1.5-2.3-1.9c-0.2-0.1-0.5-0.2-0.7-0.2c0,0.7-0.1,1.3-0.3,1.9c0.1,0,0.2,0,0.3,0.1
			c0.7,0.2,1.2,0.8,1.5,1.4c0.2,0.4,0.6,0.7,1,0.6c0.7-0.1,1.4,0.1,1.9,0.6s0.9,1.1,0.9,1.8c0,0.4,0.3,0.8,0.8,0.9
			c0.7,0.1,1.3,0.6,1.6,1.2c0.4,0.6,0.4,1.3,0.2,2c-0.1,0.4,0,0.9,0.4,1.1c0.6,0.4,1,1,1.1,1.7s-0.1,1.4-0.5,2
			c-0.3,0.4-0.3,0.8,0,1.2c0.4,0.6,0.6,1.3,0.5,2s-0.5,1.3-1.1,1.7c-0.4,0.2-0.5,0.7-0.4,1.1c0.2,0.7,0.1,1.4-0.2,2
			c-0.4,0.6-0.9,1-1.6,1.2c-0.4,0.1-0.8,0.5-0.8,0.9c0,0.7-0.3,1.4-0.9,1.8s-1.2,0.7-1.9,0.6c-0.4-0.1-0.9,0.2-1,0.6
			c-0.3,0.7-0.8,1.2-1.5,1.4s-1.4,0.2-2-0.1c-0.4-0.2-0.9-0.1-1.2,0.2c-0.5,0.5-1.1,0.8-1.8,0.8s-1.4-0.3-1.8-0.8
			c-0.2-0.2-0.5-0.3-0.7-0.3s-0.3,0-0.5,0.1c-0.6,0.3-1.4,0.4-2,0.1c-0.7-0.2-1.2-0.8-1.5-1.4c-0.2-0.4-0.6-0.7-1-0.6
			c-0.7,0.1-1.4-0.1-1.9-0.6c-0.1-0.1-0.1-0.1-0.2-0.2c-0.4,0.5-0.9,0.9-1.6,1.1c0.2,0.2,0.4,0.4,0.6,0.6c0.8,0.7,1.7,1,2.7,1
			c0.5,0.9,1.3,1.5,2.3,1.9c1,0.3,2,0.4,2.9,0c0.8,0.6,1.8,1,2.8,1s2-0.3,2.8-1c0.9,0.3,2,0.3,2.9,0c1-0.3,1.7-1,2.3-1.9
			c1,0,2-0.4,2.7-1c0.8-0.7,1.3-1.5,1.5-2.5c0.9-0.4,1.7-1,2.2-1.9s0.7-1.9,0.5-2.9c0.8-0.7,1.3-1.6,1.4-2.6c0.2-1,0-2-0.5-2.9
			C53.48,32.5,53.68,31.4,53.48,30.4z"/>
		<path class="st0" d="M38.98,39.1c-0.5,0-1,0.4-1,1c0,0.5,0.4,1,1,1c0.5,0,1-0.4,1-1S39.58,39.1,38.98,39.1z"/>
		<path class="st0" d="M37.78,43.8c-0.5,0-1,0.4-1,1c0,0.5,0.4,1,1,1c0.5,0,1-0.4,1-1C38.68,44.2,38.28,43.8,37.78,43.8z"/>
		<path class="st0" d="M34.38,40.4c-0.5,0-1,0.4-1,1c0,0.5,0.4,1,1,1c0.5,0,1-0.4,1-1C35.28,40.8,34.88,40.4,34.38,40.4z"/>
		<path class="st0" d="M46.98,36.4c-0.5,0-1,0.4-1,1c0,0.5,0.4,1,1,1c0.5,0,1-0.4,1-1C47.88,36.9,47.48,36.4,46.98,36.4z"/>
	</g>
	<g id="Icon_27_">
		<path class="st0" d="M32.68,30.4c-0.2-1-0.7-1.9-1.4-2.6c0.2-1,0-2-0.5-2.9s-1.3-1.5-2.2-1.9c-0.2-1-0.7-1.9-1.5-2.5s-1.7-1-2.7-1
			c-0.5-0.9-1.3-1.5-2.3-1.9c-1-0.3-2-0.4-2.9,0c-0.8-0.6-1.8-1-2.8-1s-2,0.3-2.8,1c-0.9-0.3-2-0.3-2.9,0c-1,0.3-1.7,1-2.3,1.9
			c-1,0-2,0.4-2.7,1c-0.8,0.7-1.3,1.5-1.5,2.5c-0.9,0.4-1.7,1-2.2,1.9s-0.7,1.9-0.5,2.9c-0.8,0.7-1.3,1.6-1.4,2.6
			c-0.2,1,0,2,0.5,2.9c-0.5,0.9-0.7,1.9-0.5,2.9s0.7,1.9,1.4,2.6c-0.2,1,0,2,0.5,2.9s1.3,1.5,2.2,1.9c0.2,1,0.7,1.9,1.5,2.5
			c0.8,0.7,1.7,1,2.7,1c0.5,0.9,1.3,1.5,2.3,1.9c1,0.3,2,0.4,2.9,0c0.8,0.6,1.8,1,2.8,1s2-0.3,2.8-1c0.9,0.3,2,0.3,2.9,0
			c1-0.3,1.7-1,2.3-1.9c1,0,2-0.4,2.7-1s1.3-1.5,1.5-2.5c0.9-0.4,1.7-1,2.2-1.9s0.7-1.9,0.5-2.9c0.8-0.7,1.3-1.6,1.4-2.6
			c0.2-1,0-2-0.5-2.9C32.68,32.5,32.88,31.4,32.68,30.4z M29.68,37.6c-0.4,0.2-0.5,0.7-0.4,1.1c0.2,0.7,0.1,1.4-0.2,2
			c-0.4,0.6-0.9,1-1.6,1.2c-0.4,0.1-0.8,0.5-0.8,0.9c0,0.7-0.3,1.4-0.9,1.8c-0.5,0.5-1.2,0.7-1.9,0.6c-0.4-0.1-0.9,0.2-1,0.6
			c-0.3,0.7-0.8,1.2-1.5,1.4s-1.4,0.2-2-0.1c-0.4-0.2-0.9-0.1-1.2,0.2c-0.5,0.5-1.1,0.8-1.8,0.8s-1.4-0.3-1.8-0.8
			c-0.2-0.2-0.5-0.3-0.7-0.3s-0.3,0-0.5,0.1c-0.6,0.3-1.4,0.4-2,0.1s-1.2-0.8-1.5-1.4c-0.2-0.4-0.6-0.7-1-0.6
			c-0.7,0.1-1.4-0.1-1.9-0.6s-0.9-1.1-0.9-1.8c0-0.4-0.3-0.8-0.8-0.9c-0.7-0.1-1.3-0.6-1.6-1.2c-0.4-0.6-0.4-1.3-0.2-2
			c0.1-0.4,0-0.9-0.4-1.1c-0.6-0.4-1-1-1.1-1.7s0.1-1.4,0.5-2c0.3-0.4,0.3-0.8,0-1.2c-0.4-0.6-0.6-1.3-0.5-2s0.5-1.3,1.1-1.7
			c0.4-0.2,0.5-0.7,0.4-1.1c-0.2-0.7-0.1-1.4,0.2-2c0.4-0.6,0.9-1,1.6-1.2c0.4-0.1,0.8-0.5,0.8-0.9c0-0.7,0.3-1.4,0.9-1.8
			s1.2-0.7,1.9-0.6c0.4,0.1,0.9-0.2,1-0.6c0.3-0.7,0.8-1.2,1.5-1.4s1.4-0.2,2,0.1c0.4,0.2,0.9,0.1,1.2-0.2c0.5-0.5,1.1-0.8,1.8-0.8
			s1.4,0.3,1.8,0.8c0.3,0.3,0.8,0.4,1.2,0.2c0.6-0.3,1.4-0.4,2-0.1c0.7,0.2,1.2,0.8,1.5,1.4c0.2,0.4,0.6,0.7,1,0.6
			c0.7-0.1,1.4,0.1,1.9,0.6s0.9,1.1,0.9,1.8c0,0.4,0.3,0.8,0.8,0.9c0.7,0.1,1.3,0.6,1.6,1.2c0.4,0.6,0.4,1.3,0.2,2
			c-0.1,0.4,0,0.9,0.4,1.1c0.6,0.4,1,1,1.1,1.7s-0.1,1.4-0.5,2c-0.3,0.4-0.3,0.8,0,1.2c0.4,0.6,0.6,1.3,0.5,2S30.28,37.2,29.68,37.6
			z"/>
		<path class="st0" d="M18.18,39.1c-0.5,0-1,0.4-1,1c0,0.5,0.4,1,1,1c0.5,0,1-0.4,1-1C19.08,39.5,18.68,39.1,18.18,39.1z"/>
		<path class="st0" d="M16.88,43.8c-0.5,0-1,0.4-1,1c0,0.5,0.4,1,1,1c0.5,0,1-0.4,1-1S17.48,43.8,16.88,43.8z"/>
		<path class="st0" d="M13.48,40.4c-0.5,0-1,0.4-1,1c0,0.5,0.4,1,1,1c0.5,0,1-0.4,1-1C14.48,40.8,14.08,40.4,13.48,40.4z"/>
		<path class="st0" d="M26.18,36.4c-0.5,0-1,0.4-1,1c0,0.5,0.4,1,1,1c0.5,0,1-0.4,1-1C27.08,36.9,26.68,36.4,26.18,36.4z"/>
	</g>
	<g id="Icon_26_">
		<path class="st0" d="M43.08,13.8c-0.2-1-0.7-1.9-1.4-2.6c0.2-1,0-2-0.5-2.9s-1.3-1.5-2.2-1.9c-0.2-1-0.7-1.9-1.5-2.5s-1.7-1-2.7-1
			c-0.5-0.9-1.3-1.5-2.3-1.9c-1-0.3-2-0.4-2.9,0c-0.8-0.6-1.8-1-2.8-1s-2,0.3-2.8,1c-0.9-0.3-2-0.3-2.9,0c-1,0.3-1.7,1-2.3,1.9
			c-1,0-2,0.4-2.7,1c-0.8,0.7-1.3,1.5-1.5,2.5c-0.9,0.4-1.7,1-2.2,1.9s-0.7,1.9-0.5,2.9c-0.8,0.7-1.3,1.6-1.4,2.6
			c-0.2,1,0,2,0.5,2.9c-0.4,0.7-0.6,1.4-0.5,2.2c0.6-0.3,1.2-0.5,2-0.5c0.1-0.4,0.2-0.8,0.5-1.1c0.3-0.4,0.3-0.8,0-1.2
			c-0.4-0.6-0.6-1.3-0.5-2s0.5-1.3,1.1-1.7c0.4-0.2,0.5-0.7,0.4-1.1c-0.2-0.7-0.1-1.4,0.2-2c0.4-0.6,0.9-1,1.6-1.2
			c0.4-0.1,0.8-0.5,0.8-0.9c0-0.7,0.3-1.4,0.9-1.8c0.5-0.5,1.2-0.7,1.9-0.6c0.4,0.1,0.9-0.2,1-0.6c0.3-0.7,0.8-1.2,1.5-1.4
			s1.4-0.2,2,0.1c0.4,0.2,0.9,0.1,1.2-0.2c0.5-0.5,1.1-0.8,1.8-0.8s1.4,0.3,1.8,0.8c0.3,0.3,0.8,0.4,1.2,0.2c0.6-0.3,1.4-0.4,2-0.1
			c0.7,0.2,1.2,0.8,1.5,1.4c0.2,0.4,0.6,0.7,1,0.6c0.7-0.1,1.4,0.1,1.9,0.6s0.9,1.1,0.9,1.8c0,0.4,0.3,0.8,0.8,0.9
			c0.7,0.1,1.3,0.6,1.6,1.2c0.4,0.6,0.4,1.3,0.2,2c-0.1,0.4,0,0.9,0.4,1.1c0.6,0.4,1,1,1.1,1.7s-0.1,1.4-0.5,2
			c-0.3,0.4-0.3,0.8,0,1.2c0.4,0.6,0.6,1.3,0.5,2s-0.5,1.3-1.1,1.7c-0.4,0.2-0.5,0.7-0.4,1.1c0.2,0.7,0.1,1.4-0.2,2
			c-0.4,0.6-0.9,1-1.6,1.2c-0.4,0.1-0.8,0.5-0.8,0.9c0,0.7-0.3,1.4-0.9,1.8c-0.5,0.5-1.2,0.7-1.9,0.6c-0.4-0.1-0.9,0.2-1,0.6
			c-0.3,0.7-0.8,1.2-1.5,1.4c-0.1,0-0.1,0-0.2,0c0.1,0.7,0.1,1.3-0.1,2c0.3,0,0.6-0.1,0.9-0.2c1-0.3,1.7-1,2.3-1.9c1,0,2-0.4,2.7-1
			c0.8-0.7,1.3-1.5,1.5-2.5c0.9-0.4,1.7-1,2.2-1.9s0.7-1.9,0.5-2.9c0.8-0.7,1.3-1.6,1.4-2.6c0.2-1,0-2-0.5-2.9
			C43.08,15.8,43.28,14.8,43.08,13.8z"/>
		<path class="st0" d="M36.58,19.8c-0.5,0-1,0.4-1,1c0,0.5,0.4,1,1,1c0.5,0,1-0.4,1-1C37.48,20.2,37.08,19.8,36.58,19.8z"/>
	</g>
</g>
</svg>
