<?xml version="1.0" encoding="utf-8"?>
<!-- Generator: Adobe Illustrator 23.1.0, SVG Export Plug-In . SVG Version: 6.00 Build 0)  -->
<svg version="1.1" id="Слой_1" xmlns="http://www.w3.org/2000/svg" xmlns:xlink="http://www.w3.org/1999/xlink" x="0px" y="0px"
	 viewBox="0 0 70.67 50" style="enable-background:new 0 0 70.67 50;" xml:space="preserve">
<style type="text/css">
	.st0{fill:#A5A5A5;}
</style>
<g id="Ico_6_">
	<g>
		<path class="st0" d="M60.44,50h-50.1l-4.6-4.7h-3c-1.1,0-2-0.8-2.2-1.8l-0.5-2.3c-0.1-0.6,0-1.2,0.4-1.7s0.9-0.7,1.5-0.7h66.8
			c0.6,0,1.2,0.3,1.5,0.7c0.4,0.5,0.5,1.1,0.4,1.7l-0.5,2.3c-0.2,1-1.2,1.8-2.2,1.8h-3L60.44,50z M11.44,47.3h47.8l4.6-4.7h3.8
			l0.2-1.1h-65l0.2,1.1h18.3v2.7H9.44L11.44,47.3z"/>
	</g>
	<g>
		<path class="st0" d="M13.14,37.1h-2.7c0-7.7,3.4-15,9.4-19.9l1.7,2.1C16.24,23.7,13.14,30.2,13.14,37.1z"/>
	</g>
	<g>
		<path class="st0" d="M25.14,16.9l-1.3-2.4c1.6-0.9,3.2-1.6,5-2.1l0.8,2.6C28.04,15.5,26.54,16.1,25.14,16.9z"/>
	</g>
	<g>
		<path class="st0" d="M66.74,37.1h-2.7c0-15.4-12.5-27.9-27.9-27.9S8.24,21.7,8.24,37.1h-2.7c0-16.9,13.7-30.6,30.6-30.6
			C52.94,6.5,66.74,20.2,66.74,37.1z"/>
	</g>
	<g>
		<path class="st0" d="M36.14,9.2c-3.6,0-6.5-2-6.5-4.6s2.8-4.6,6.5-4.6s6.5,2,6.5,4.6C42.54,7.2,39.74,9.2,36.14,9.2z M36.14,2.7
			c-2.3,0-3.8,1.1-3.8,1.9s1.5,1.9,3.8,1.9s3.8-1.1,3.8-1.9C39.84,3.8,38.44,2.7,36.14,2.7z"/>
	</g>
</g>
</svg>
