<?xml version="1.0" encoding="utf-8"?>
<!-- Generator: Adobe Illustrator 23.1.0, SVG Export Plug-In . SVG Version: 6.00 Build 0)  -->
<svg version="1.1" id="Слой_1" xmlns="http://www.w3.org/2000/svg" xmlns:xlink="http://www.w3.org/1999/xlink" x="0px" y="0px"
	 viewBox="0 0 20 20" style="enable-background:new 0 0 20 20;" xml:space="preserve">
<style type="text/css">
	.st0{fill:#FFFFFF;}
</style>
<g id="Close_3_">
	<path class="st0" d="M10,20C4.49,20,0,15.51,0,10S4.49,0,10,0s10,4.49,10,10S15.51,20,10,20z M10,0.65c-5.16,0-9.35,4.2-9.35,9.35
		s4.2,9.35,9.35,9.35s9.35-4.2,9.35-9.35S15.16,0.65,10,0.65z"/>
	<path class="st0" d="M12.35,6.92L10,9.28L7.65,6.92c-0.2-0.2-0.52-0.2-0.72,0s-0.2,0.52,0,0.72L9.28,10l-2.35,2.35
		c-0.2,0.2-0.2,0.52,0,0.72c0.2,0.2,0.52,0.2,0.72,0L10,10.72l2.35,2.35c0.2,0.2,0.52,0.2,0.72,0c0.2-0.2,0.2-0.52,0-0.72L10.72,10
		l2.35-2.35c0.2-0.2,0.2-0.52,0-0.72C12.88,6.72,12.55,6.72,12.35,6.92z"/>
</g>
</svg>
