<?xml version="1.0" encoding="utf-8"?>
<!-- Generator: Adobe Illustrator 23.1.0, SVG Export Plug-In . SVG Version: 6.00 Build 0)  -->
<svg version="1.1" id="Слой_1" xmlns="http://www.w3.org/2000/svg" xmlns:xlink="http://www.w3.org/1999/xlink" x="0px" y="0px"
	 viewBox="0 0 80 80" style="enable-background:new 0 0 80 80;" xml:space="preserve">
<style type="text/css">
	.st0{fill:#FFFFFF;}
	.st1{fill:#D4AF93;}
</style>
<g id="Ico_126_">
	<circle id="Frame_149_" class="st0" cx="40" cy="40" r="40"/>
	<path class="st1" d="M51.71,39.1c-1.83-1.07-3.91-1.38-5.85-0.87c-0.39,0.1-0.63,0.5-0.52,0.89c0.1,0.39,0.5,0.63,0.89,0.52
		c1.56-0.41,3.25-0.15,4.75,0.72c0.12,0.07,0.24,0.1,0.37,0.1C52.08,40.46,52.35,39.47,51.71,39.1z"/>
	<path class="st1" d="M35.06,39.12c0.1-0.39-0.13-0.79-0.52-0.89c-1.94-0.51-4.02-0.2-5.85,0.87c-0.64,0.38-0.38,1.37,0.37,1.37
		c0.13,0,0.25-0.03,0.37-0.1c1.5-0.87,3.18-1.13,4.75-0.72C34.56,39.75,34.96,39.51,35.06,39.12z"/>
	<path class="st1" d="M34.56,51.59c-0.22,0.49,0.14,1.04,0.67,1.04c0.28,0,0.54-0.16,0.67-0.43c1.69-3.73,6.96-3.65,8.61,0
		c0.17,0.37,0.6,0.53,0.97,0.37c0.37-0.17,0.53-0.6,0.37-0.97C43.67,46.82,36.78,46.7,34.56,51.59z"/>
	<path class="st1" d="M40,15c-4.85,0-9.37,1.38-13.21,3.77c-1.06-1.67-2.05-3.04-2.42-3.56c-0.04-0.05-0.1-0.08-0.16-0.08
		c-0.06,0-0.12,0.03-0.16,0.08c-0.95,1.31-5.87,8.21-5.87,11.22c0,0.39,0.04,0.78,0.11,1.15C16.2,31.24,15,35.48,15,40
		c0,13.81,11.19,25,25,25s25-11.19,25-25S53.81,15,40,15z M21.94,20.89c0.79-1.33,1.63-2.59,2.27-3.52
		c0.64,0.93,1.48,2.19,2.27,3.52c2.15,3.62,2.39,5.08,2.39,5.54c0,2.57-2.09,4.66-4.66,4.66s-4.66-2.09-4.66-4.66
		C19.56,25.97,19.79,24.5,21.94,20.89z M56.71,56.71c-2.17,2.17-4.7,3.87-7.51,5.06c-2.91,1.23-6.01,1.86-9.2,1.86
		s-6.28-0.62-9.2-1.86c-2.81-1.19-5.34-2.89-7.51-5.06c-2.17-2.17-3.87-4.7-5.06-7.51c-1.23-2.91-1.86-6.01-1.86-9.2
		s0.62-6.28,1.86-9.2c0.21-0.5,0.45-1,0.69-1.48c1.02,1.87,3.01,3.14,5.29,3.14c3.33,0,6.03-2.7,6.03-6.03
		c0-1.56-1.32-4.17-2.73-6.5c1.05-0.65,2.14-1.22,3.29-1.71c2.91-1.23,6.01-1.86,9.2-1.86s6.28,0.62,9.2,1.86
		c2.81,1.19,5.34,2.89,7.51,5.06c2.17,2.17,3.87,4.7,5.06,7.51c1.23,2.91,1.86,6.01,1.86,9.2s-0.62,6.28-1.86,9.2
		C60.58,52.01,58.88,54.54,56.71,56.71z"/>
</g>
</svg>
