<?xml version="1.0" encoding="utf-8"?>
<!-- Generator: Adobe Illustrator 23.1.0, SVG Export Plug-In . SVG Version: 6.00 Build 0)  -->
<svg version="1.1" id="Слой_1" xmlns="http://www.w3.org/2000/svg" xmlns:xlink="http://www.w3.org/1999/xlink" x="0px" y="0px"
	 viewBox="0 0 20 20" style="enable-background:new 0 0 20 20;" xml:space="preserve">
<style type="text/css">
	.st0{fill:#D4AF93;}
	.st1{fill:#FFFFFF;}
</style>
<g id="Ico_48_">
	<circle id="Frame_63_" class="st0" cx="10" cy="10" r="10"/>
	<path class="st1" d="M10,14.45c-0.14,0-0.28-0.05-0.39-0.15c-0.4-0.35-0.79-0.69-1.14-0.98l0,0c-1.01-0.86-1.88-1.6-2.48-2.33
		C5.32,10.18,5,9.4,5,8.56c0-0.82,0.28-1.58,0.79-2.13c0.52-0.56,1.23-0.87,2-0.87c0.58,0,1.11,0.18,1.57,0.54
		C9.6,6.28,9.81,6.5,10,6.76c0.19-0.26,0.4-0.48,0.64-0.66c0.47-0.36,0.99-0.54,1.57-0.54c0.77,0,1.48,0.31,2,0.87
		C14.72,6.98,15,7.74,15,8.56c0,0.85-0.32,1.62-0.99,2.44c-0.61,0.73-1.48,1.47-2.48,2.33c-0.34,0.29-0.73,0.63-1.14,0.98
		C10.28,14.4,10.14,14.45,10,14.45z"/>
</g>
</svg>
