<?xml version="1.0" encoding="utf-8"?>
<!-- Generator: Adobe Illustrator 23.1.0, SVG Export Plug-In . SVG Version: 6.00 Build 0)  -->
<svg version="1.1" id="Слой_1" xmlns="http://www.w3.org/2000/svg" xmlns:xlink="http://www.w3.org/1999/xlink" x="0px" y="0px"
	 viewBox="0 0 25 26.43" style="enable-background:new 0 0 25 26.43;" xml:space="preserve">
<style type="text/css">
	.st0{fill:#D4AF93;}
</style>
<g id="Prize_1_">
	<path class="st0" d="M12.5,18.28c-4.3,0-7.79-3.5-7.79-7.79V0.4c0-0.22,0.18-0.4,0.4-0.4h14.79c0.22,0,0.4,0.18,0.4,0.4v10.08
		C20.29,14.78,16.8,18.28,12.5,18.28z M5.51,0.8v9.68c0,3.86,3.14,6.99,6.99,6.99s6.99-3.14,6.99-6.99V0.8H5.51z"/>
	<path class="st0" d="M18.45,15.28c-0.18,0-0.34-0.12-0.39-0.31c-0.05-0.22,0.08-0.43,0.3-0.48c3.44-0.83,5.85-3.88,5.85-7.42V3.38
		h-4.3c-0.22,0-0.4-0.18-0.4-0.4c0-0.22,0.18-0.4,0.4-0.4h4.71c0.22,0,0.4,0.18,0.4,0.4v4.09c0,3.91-2.66,7.28-6.46,8.2
		C18.51,15.27,18.48,15.28,18.45,15.28z"/>
	<path class="st0" d="M6.55,15.28c-0.03,0-0.06,0-0.09-0.01C2.66,14.35,0,10.98,0,7.07V2.98c0-0.22,0.18-0.4,0.4-0.4h4.71
		c0.22,0,0.4,0.18,0.4,0.4c0,0.22-0.18,0.4-0.4,0.4H0.8v3.69c0,3.54,2.4,6.59,5.85,7.42c0.21,0.05,0.35,0.27,0.3,0.48
		C6.9,15.15,6.73,15.28,6.55,15.28z"/>
	<path class="st0" d="M18.21,26.43H6.79c-0.22,0-0.4-0.18-0.4-0.4v-2.21c0-0.22,0.18-0.4,0.4-0.4h1.07v-0.71
		c0-0.22,0.18-0.4,0.4-0.4h8.48c0.22,0,0.4,0.18,0.4,0.4v0.71h1.07c0.22,0,0.4,0.18,0.4,0.4v2.21
		C18.61,26.26,18.43,26.43,18.21,26.43z M7.19,25.63h10.63v-1.41h-1.07c-0.22,0-0.4-0.18-0.4-0.4v-0.71H8.66v0.71
		c0,0.22-0.18,0.4-0.4,0.4H7.19V25.63z"/>
	<path class="st0" d="M10.26,23.12c-0.22,0-0.4-0.18-0.4-0.4v-5.18c0-0.22,0.18-0.4,0.4-0.4c0.22,0,0.4,0.18,0.4,0.4v5.18
		C10.66,22.94,10.48,23.12,10.26,23.12z"/>
	<path class="st0" d="M14.74,23.12c-0.22,0-0.4-0.18-0.4-0.4v-5.18c0-0.22,0.18-0.4,0.4-0.4c0.22,0,0.4,0.18,0.4,0.4v5.18
		C15.14,22.94,14.96,23.12,14.74,23.12z"/>
</g>
</svg>
