<?xml version="1.0" encoding="utf-8"?>
<!-- Generator: Adobe Illustrator 23.1.0, SVG Export Plug-In . SVG Version: 6.00 Build 0)  -->
<svg version="1.1" id="Слой_1" xmlns="http://www.w3.org/2000/svg" xmlns:xlink="http://www.w3.org/1999/xlink" x="0px" y="0px"
	 viewBox="0 0 31 31" style="enable-background:new 0 0 31 31;" xml:space="preserve">
<style type="text/css">
	.st0{fill:#A5A5A5;}
</style>
<g id="Close_2_">
	<path class="st0" d="M15.5,31C6.95,31,0,24.05,0,15.5S6.95,0,15.5,0S31,6.95,31,15.5S24.05,31,15.5,31z M15.5,1C7.5,1,1,7.5,1,15.5
		S7.5,30,15.5,30S30,23.5,30,15.5S23.5,1,15.5,1z"/>
	<path class="st0" d="M19.15,10.73l-3.65,3.65l-3.65-3.65c-0.31-0.31-0.81-0.31-1.12,0s-0.31,0.81,0,1.12l3.65,3.65l-3.65,3.65
		c-0.31,0.31-0.31,0.81,0,1.12c0.31,0.31,0.81,0.31,1.12,0l3.65-3.65l3.65,3.65c0.31,0.31,0.81,0.31,1.12,0
		c0.31-0.31,0.31-0.81,0-1.12l-3.65-3.65l3.65-3.65c0.31-0.31,0.31-0.81,0-1.12C19.96,10.42,19.46,10.42,19.15,10.73z"/>
</g>
</svg>
