<?xml version="1.0" encoding="utf-8"?>
<!-- Generator: Adobe Illustrator 23.1.0, SVG Export Plug-In . SVG Version: 6.00 Build 0)  -->
<svg version="1.1" id="Слой_1" xmlns="http://www.w3.org/2000/svg" xmlns:xlink="http://www.w3.org/1999/xlink" x="0px" y="0px"
	 viewBox="0 0 20 20" style="enable-background:new 0 0 20 20;" xml:space="preserve">
<style type="text/css">
	.st0{fill:#FF0000;}
	.st1{fill:#FFFFFF;}
</style>
<g id="Ico_52_">
	<circle id="Frame_69_" class="st0" cx="10" cy="10" r="10"/>
	<g>
		<path class="st1" d="M14.97,7.06c-0.42-0.56-1.03-0.91-1.73-0.98c-0.52-0.06-1.02,0.06-1.48,0.34c-0.21,0.13-0.41,0.3-0.6,0.5
			c0.11,0.11,0.22,0.22,0.33,0.33c0.17,0.17,0.34,0.35,0.51,0.52l0.07,0.07L11.99,7.9c-0.19,0.12-0.38,0.23-0.57,0.35
			c-0.19,0.12-0.38,0.23-0.57,0.35c-0.32,0.19-0.63,0.38-0.95,0.56c0.15,0.13,0.31,0.26,0.46,0.39l0.63,0.54
			c0.42,0.36,0.84,0.73,1.26,1.1l0.12,0.1l-0.08,0.13l-0.67,1l-0.68,0.99c-0.12,0.17-0.24,0.35-0.37,0.52
			c0.07-0.01,0.14-0.04,0.2-0.08c0.4-0.28,0.79-0.55,1.13-0.78c1-0.68,1.86-1.27,2.47-1.88c0.69-0.68,1.05-1.35,1.13-2.12
			C15.56,8.33,15.38,7.61,14.97,7.06z"/>
		<path class="st1" d="M10.02,12.18l0.41-0.97c-0.43-0.27-0.86-0.53-1.29-0.8L8.43,9.97c-0.24-0.15-0.47-0.3-0.7-0.45l-0.2-0.13
			l0.18-0.14c0.35-0.27,0.71-0.54,1.07-0.81c0.18-0.13,0.36-0.27,0.54-0.4c0.15-0.11,0.36-0.26,0.36-0.26S8.98,6.99,8.97,7
			C8.79,6.77,8.59,6.58,8.36,6.42C7.92,6.12,7.43,5.98,6.91,6C6.2,6.04,5.57,6.36,5.13,6.89C4.69,7.42,4.47,8.13,4.5,8.87
			c0.04,0.77,0.36,1.46,1.02,2.17c0.59,0.64,1.41,1.27,2.37,2l0,0c0.33,0.25,0.7,0.53,1.08,0.84c0.09,0.07,0.19,0.1,0.3,0.11
			c0.09-0.23,0.19-0.47,0.28-0.7L10.02,12.18z"/>
	</g>
</g>
</svg>
