<?xml version="1.0" encoding="utf-8"?>
<!-- Generator: Adobe Illustrator 23.1.0, SVG Export Plug-In . SVG Version: 6.00 Build 0)  -->
<svg version="1.1" id="Слой_1" xmlns="http://www.w3.org/2000/svg" xmlns:xlink="http://www.w3.org/1999/xlink" x="0px" y="0px"
	 viewBox="0 0 50 60" style="enable-background:new 0 0 50 60;" xml:space="preserve">
<style type="text/css">
	.st0{fill-rule:evenodd;clip-rule:evenodd;fill:#A5A5A5;}
</style>
<g id="Ico_158_">
	<path class="st0" d="M14.11,4.31c5.47,1.24,7.51,2.98,9.13,4.07c0,0,0.08-0.79,0.47-1.73c0.46-1.11,1.63-2.46,2.06-3.3
		c1.18-2.32,0.95-2.25,1.36-2.61c0.5-0.04,0.64,0.47,0.71,1.89c0.08,1.42-0.08,2.55-0.08,2.55c1.35,0.03,1.25,0.17,2.73-4.06
		c1.09-3.03,1.31,0.96,1.25,1.82c-0.17,2.75-0.98,3.51-0.7,3.76c0.29,0.25,1.43,0.84,1.83,0.43c0.39-0.41,1.03-0.85,2.33-1.37
		c1.31-0.53,1.58-0.38,1.75,0.17c0.17,0.55-0.05,3.1-0.05,3.1s1.14,0.34,1.92,1.4c0.78,1.06,0.43,1.49,1.58,2.08
		c1.15,0.59,5.02,2.69,5.96,3.22c0.94,0.53,0.54,0.51,1.65,0.68c2.07,0.32,2.46,2.36,1.43,3.88c-0.85,1.25-1.39,1.29-2.33,1.92
		c-0.94,0.63-0.85,1.27-2.87,1.21c-10.02-2.56-13.1,8.24-22.66,3.18c-1.57-0.54-2.08-1.92-2.72-2.61c-0.77-0.83-1.48-0.79-1.64-0.73
		c-0.79,0.31,2.01,3.17-0.4,1.47c-1.48-1.05-1.55-0.91-3.14-1.1c-0.44-0.05-0.23,0.73-0.17,0.94c0.11,0.39,0.43,0.96,0.75,1.52
		c0.37,0.64,1.63,2.78,1.84,3.33c0.24,0.65-0.04,1.39-2.12,2.79c-2.39,1.61-1.95,1.6-4.55,1.26c-0.59-0.08-0.68-0.09-0.85,0.42
		c-0.2,0.59-0.45,1.72-0.34,2.47c0.05,0.34,0.16,0.58,0.47,0.75c0.33,0.18,0.85-0.73,2.12,1.39c5.63,9.42,12.49,13.02,18.78,12.59
		c10.08-0.69,15.76-8.76,17.55-12.17C45.9,50.77,35.86,60,23.66,60C10.59,60,0,49.41,0,36.34c0-11.03,7.54-20.29,17.75-22.92
		C13.2,12.16,12.8,7.42,14.11,4.31z"/>
	<path class="st0" d="M44.26,29.04c-0.05-0.14-0.27-0.38-0.48-0.57c-0.31-0.28-0.38-0.61-0.12-1.05c0.05-0.09,0.05-0.35-0.08-0.35
		c-0.13,0-0.3,0.01-0.24-0.13c0.15-0.73-0.23-0.76-0.33-0.6c-0.02,0.03-0.15,0.25-0.13,0.01c0.05-0.81-0.13-1.12-0.43-0.67
		c-0.04,0.04-0.2,0.13-0.18-0.14c0.08-0.22,0.05-0.68-0.31-0.06c0,0-0.15,0.12-0.16-0.15c-0.02-0.49-0.22-0.28-0.4,0.01
		c-0.08,0.13-0.21,0.42-0.14,0.59c0.07,0.17,0.23,0.34,0.19,0.42c-0.01,0.03-0.05,0.07-0.1,0.11c-0.4,0-1.84,0.21-3.12,1.29
		c-1.3,1.1-1.8,1.81-2.29,2.5c-5.3,7.37-14.28,5.44-16.13-1.18c-0.12-0.41-0.49,1.88,0.22,3.44c-0.24-0.34-1.06-1.14-1.67-2.14
		c-0.28-0.46-0.63,1.93,0.43,3.78c-0.59-0.81-1.22-1.03-1.66-1.82c-0.22-0.4-0.32,1.86,0.94,3.7c-0.07-0.07-0.33-0.19-0.54-0.37
		c-0.28-0.24-0.51-0.52-0.46-0.24c0.11,0.57,0.55,1.68,1.58,3.04c0.32,0.42,0.79,1.62,1.34,2.97c2.37,5.77,13.58,7.97,19.14,0.36
		c3.19-4.37,1.29-6.58,2.31-10.51c0.85,0.85,2.2,0.38,1.68-0.92c-0.16-0.31-0.25-0.63-0.29-0.88c-0.05-0.32-0.09-0.3,0.21-0.34
		c0.11-0.02,0.56-0.02,0.79,0.05C44.11,29.28,44.41,29.47,44.26,29.04z"/>
</g>
</svg>
