<?xml version="1.0" encoding="utf-8"?>
<!-- Generator: Adobe Illustrator 23.1.0, SVG Export Plug-In . SVG Version: 6.00 Build 0)  -->
<svg version="1.1" id="Слой_1" xmlns="http://www.w3.org/2000/svg" xmlns:xlink="http://www.w3.org/1999/xlink" x="0px" y="0px"
	 viewBox="0 0 80 80" style="enable-background:new 0 0 80 80;" xml:space="preserve">
<style type="text/css">
	.st0{fill:#FFFFFF;}
	.st1{fill:#D4AF93;}
</style>
<g id="Ico_125_">
	<circle id="Frame_148_" class="st0" cx="40" cy="40" r="40"/>
	<path class="st1" d="M40,47.66c-6.5,0-11.79-5.29-11.79-11.79V20.61c0-0.33,0.27-0.61,0.61-0.61h22.38c0.33,0,0.61,0.27,0.61,0.61
		v15.26C51.79,42.37,46.5,47.66,40,47.66z M29.42,21.21v14.65c0,5.84,4.75,10.58,10.58,10.58s10.58-4.75,10.58-10.58V21.21H29.42z"
		/>
	<path class="st1" d="M49,43.12c-0.27,0-0.52-0.19-0.59-0.46c-0.08-0.33,0.12-0.65,0.45-0.73c5.21-1.25,8.85-5.87,8.85-11.23v-5.58
		h-6.51c-0.33,0-0.61-0.27-0.61-0.61c0-0.33,0.27-0.61,0.61-0.61h7.12c0.33,0,0.61,0.27,0.61,0.61v6.19
		c0,5.92-4.02,11.02-9.77,12.41C49.09,43.11,49.05,43.12,49,43.12z"/>
	<path class="st1" d="M31,43.12c-0.05,0-0.09-0.01-0.14-0.02c-5.75-1.39-9.77-6.49-9.77-12.41v-6.19c0-0.33,0.27-0.61,0.61-0.61
		h7.12c0.33,0,0.61,0.27,0.61,0.61c0,0.33-0.27,0.61-0.61,0.61H22.3v5.58c0,5.36,3.64,9.97,8.85,11.23
		c0.33,0.08,0.53,0.41,0.45,0.73C31.52,42.93,31.28,43.12,31,43.12z"/>
	<path class="st1" d="M48.65,60H31.35c-0.33,0-0.61-0.27-0.61-0.61v-3.35c0-0.33,0.27-0.61,0.61-0.61h1.63v-1.07
		c0-0.33,0.27-0.61,0.61-0.61h12.83c0.33,0,0.61,0.27,0.61,0.61v1.07h1.63c0.33,0,0.61,0.27,0.61,0.61v3.35
		C49.25,59.73,48.98,60,48.65,60z M31.96,58.79h16.08v-2.13h-1.63c-0.33,0-0.61-0.27-0.61-0.61v-1.07H34.19v1.07
		c0,0.33-0.27,0.61-0.61,0.61h-1.63V58.79z"/>
	<path class="st1" d="M36.61,54.98c-0.33,0-0.61-0.27-0.61-0.61v-7.84c0-0.33,0.27-0.61,0.61-0.61c0.33,0,0.61,0.27,0.61,0.61v7.84
		C37.22,54.71,36.94,54.98,36.61,54.98z"/>
	<path class="st1" d="M43.39,54.98c-0.33,0-0.61-0.27-0.61-0.61v-7.84c0-0.33,0.27-0.61,0.61-0.61S44,46.2,44,46.54v7.84
		C44,54.71,43.73,54.98,43.39,54.98z"/>
</g>
</svg>
