<?xml version="1.0" encoding="utf-8"?>
<!-- Generator: Adobe Illustrator 23.1.0, SVG Export Plug-In . SVG Version: 6.00 Build 0)  -->
<svg version="1.1" id="Слой_1" xmlns="http://www.w3.org/2000/svg" xmlns:xlink="http://www.w3.org/1999/xlink" x="0px" y="0px"
	 viewBox="0 0 64.55 60" style="enable-background:new 0 0 64.55 60;" xml:space="preserve">
<style type="text/css">
	.st0{fill:#A5A5A5;}
</style>
<g id="Icon_25_">
	<g id="Icon_28_">
		<path class="st0" d="M64.47,36.53c-0.21-1.2-0.83-2.28-1.73-3.07c0.18-1.19-0.04-2.41-0.65-3.46c-0.61-1.05-1.56-1.86-2.67-2.29
			c-0.23-1.18-0.86-2.25-1.79-3.03c-0.93-0.78-2.1-1.21-3.3-1.24c-0.62-1.03-1.58-1.82-2.72-2.24c-0.29-0.1-0.58-0.18-0.88-0.24
			c0.04,0.79-0.07,1.58-0.33,2.31c0.14,0.03,0.28,0.05,0.42,0.1c0.79,0.29,1.43,0.9,1.74,1.69c0.2,0.5,0.71,0.79,1.24,0.72
			c0.84-0.12,1.69,0.12,2.33,0.67c0.65,0.54,1.03,1.34,1.06,2.18c0.02,0.53,0.4,0.99,0.92,1.1c0.83,0.17,1.54,0.69,1.96,1.42
			c0.42,0.73,0.51,1.61,0.25,2.41c-0.17,0.51,0.04,1.06,0.49,1.35c0.72,0.45,1.21,1.18,1.36,2.01c0.15,0.83-0.07,1.69-0.59,2.35
			c-0.33,0.42-0.33,1.01,0,1.43c0.52,0.67,0.74,1.52,0.59,2.35s-0.64,1.56-1.36,2.01c-0.45,0.28-0.66,0.84-0.49,1.35
			c0.26,0.8,0.17,1.68-0.25,2.41c-0.42,0.73-1.14,1.25-1.96,1.42c-0.52,0.11-0.9,0.56-0.92,1.1c-0.03,0.84-0.41,1.64-1.06,2.18
			c-0.65,0.54-1.5,0.78-2.33,0.67c-0.53-0.08-1.04,0.22-1.24,0.72c-0.32,0.78-0.95,1.4-1.74,1.69c-0.79,0.29-1.67,0.23-2.42-0.17
			c-0.47-0.25-1.05-0.15-1.41,0.25c-0.56,0.63-1.37,0.99-2.21,0.99s-1.65-0.36-2.22-0.99c-0.23-0.25-0.54-0.39-0.86-0.39
			c-0.19,0-0.37,0.04-0.55,0.14c-0.75,0.4-1.63,0.46-2.42,0.17c-0.79-0.29-1.43-0.9-1.74-1.69c-0.2-0.5-0.71-0.79-1.24-0.72
			c-0.84,0.12-1.69-0.12-2.33-0.67c-0.09-0.08-0.16-0.17-0.24-0.25c-0.49,0.58-1.14,1.05-1.93,1.34c0.2,0.25,0.43,0.48,0.68,0.69
			c0.93,0.78,2.1,1.21,3.3,1.24c0.62,1.03,1.58,1.82,2.72,2.24c1.14,0.42,2.38,0.42,3.52,0.04c0.93,0.75,2.11,1.17,3.32,1.17
			c1.21,0,2.39-0.42,3.32-1.17c1.14,0.39,2.38,0.38,3.52-0.04c1.14-0.42,2.1-1.21,2.72-2.24c1.2-0.03,2.37-0.46,3.3-1.24
			c0.93-0.78,1.56-1.85,1.79-3.03c1.12-0.43,2.07-1.24,2.67-2.29c0.61-1.05,0.83-2.28,0.65-3.46c0.9-0.79,1.52-1.87,1.73-3.07
			c0.21-1.2,0-2.42-0.58-3.47C64.47,38.95,64.68,37.72,64.47,36.53z"/>
		<path class="st0" d="M47.08,46.92c-0.61,0-1.19,0.53-1.16,1.16c0.03,0.63,0.51,1.16,1.16,1.16c0.61,0,1.19-0.53,1.16-1.16
			C48.21,47.45,47.73,46.92,47.08,46.92z"/>
		<path class="st0" d="M45.56,52.52c-0.61,0-1.19,0.53-1.16,1.16c0.03,0.63,0.51,1.16,1.16,1.16c0.61,0,1.19-0.53,1.16-1.16
			C46.69,53.06,46.21,52.52,45.56,52.52z"/>
		<path class="st0" d="M41.47,48.44c-0.61,0-1.19,0.53-1.16,1.16c0.03,0.63,0.51,1.16,1.16,1.16c0.61,0,1.19-0.53,1.16-1.16
			C42.61,48.97,42.13,48.44,41.47,48.44z"/>
		<path class="st0" d="M56.62,43.72c-0.61,0-1.19,0.53-1.16,1.16c0.03,0.63,0.51,1.16,1.16,1.16c0.61,0,1.19-0.53,1.16-1.16
			C57.75,44.25,57.27,43.72,56.62,43.72z"/>
	</g>
	<g id="Icon_27_">
		<path class="st0" d="M39.47,36.53c-0.21-1.2-0.83-2.28-1.73-3.07c0.18-1.19-0.04-2.41-0.65-3.46c-0.61-1.05-1.56-1.86-2.67-2.29
			c-0.23-1.18-0.86-2.25-1.79-3.03c-0.93-0.78-2.1-1.21-3.3-1.24c-0.62-1.03-1.58-1.82-2.72-2.24c-1.14-0.42-2.38-0.42-3.52-0.04
			C22.16,20.42,20.99,20,19.78,20c-1.21,0-2.39,0.42-3.32,1.17c-1.14-0.39-2.38-0.38-3.52,0.04c-1.14,0.42-2.1,1.21-2.72,2.24
			c-1.2,0.03-2.37,0.46-3.3,1.24c-0.93,0.78-1.56,1.85-1.79,3.03C4.01,28.14,3.06,28.95,2.46,30c-0.61,1.05-0.83,2.28-0.65,3.46
			c-0.9,0.79-1.52,1.87-1.73,3.07c-0.21,1.2,0,2.42,0.58,3.47c-0.58,1.05-0.79,2.28-0.58,3.47c0.21,1.2,0.83,2.28,1.73,3.07
			C1.63,47.72,1.85,48.95,2.46,50s1.56,1.86,2.67,2.29c0.23,1.18,0.86,2.25,1.79,3.03c0.93,0.78,2.1,1.21,3.3,1.24
			c0.62,1.03,1.58,1.82,2.72,2.24c1.14,0.42,2.38,0.42,3.52,0.04c0.93,0.75,2.11,1.17,3.32,1.17s2.39-0.42,3.32-1.17
			c1.14,0.39,2.38,0.38,3.52-0.04s2.1-1.21,2.72-2.24c1.2-0.03,2.37-0.46,3.3-1.24c0.93-0.78,1.56-1.85,1.79-3.03
			c1.12-0.43,2.07-1.24,2.67-2.29s0.83-2.28,0.65-3.46c0.9-0.79,1.52-1.87,1.73-3.07c0.21-1.2,0-2.42-0.58-3.47
			C39.47,38.95,39.68,37.72,39.47,36.53z M35.83,45.08c-0.45,0.28-0.66,0.84-0.49,1.35c0.26,0.8,0.17,1.68-0.25,2.41
			c-0.42,0.73-1.14,1.25-1.97,1.42c-0.52,0.11-0.9,0.56-0.92,1.1c-0.03,0.84-0.41,1.64-1.06,2.18c-0.65,0.54-1.5,0.78-2.33,0.67
			c-0.53-0.08-1.04,0.22-1.24,0.72c-0.32,0.78-0.95,1.4-1.74,1.69c-0.79,0.29-1.67,0.23-2.42-0.17c-0.47-0.25-1.05-0.15-1.41,0.25
			c-0.56,0.63-1.37,0.99-2.21,0.99s-1.65-0.36-2.21-0.99c-0.23-0.25-0.54-0.39-0.86-0.39c-0.19,0-0.37,0.04-0.55,0.14
			c-0.75,0.4-1.63,0.46-2.42,0.17c-0.79-0.29-1.43-0.9-1.74-1.69c-0.2-0.5-0.71-0.79-1.24-0.72c-0.84,0.12-1.69-0.12-2.33-0.67
			C7.77,53,7.38,52.2,7.35,51.36c-0.02-0.53-0.4-0.99-0.92-1.1c-0.83-0.17-1.54-0.69-1.96-1.42s-0.51-1.61-0.25-2.41
			c0.17-0.51-0.04-1.06-0.49-1.35c-0.72-0.45-1.21-1.18-1.36-2.01s0.07-1.69,0.59-2.35c0.33-0.42,0.33-1.01,0-1.43
			c-0.52-0.66-0.74-1.52-0.59-2.35c0.15-0.83,0.64-1.56,1.36-2.01c0.45-0.28,0.66-0.84,0.49-1.35c-0.26-0.8-0.17-1.68,0.25-2.41
			c0.42-0.73,1.14-1.25,1.96-1.42c0.52-0.11,0.9-0.56,0.92-1.1C7.38,27.8,7.77,27,8.41,26.46c0.65-0.54,1.5-0.78,2.33-0.67
			c0.53,0.08,1.04-0.22,1.24-0.72c0.32-0.78,0.95-1.4,1.74-1.69c0.79-0.29,1.67-0.23,2.42,0.17c0.47,0.25,1.05,0.15,1.41-0.25
			c0.56-0.63,1.37-0.99,2.21-0.99s1.65,0.36,2.21,0.99c0.36,0.4,0.94,0.5,1.41,0.25c0.75-0.4,1.63-0.46,2.42-0.17
			c0.79,0.29,1.43,0.9,1.74,1.69c0.2,0.5,0.71,0.79,1.24,0.72c0.84-0.12,1.69,0.12,2.33,0.67c0.65,0.54,1.03,1.34,1.06,2.18
			c0.02,0.53,0.4,0.99,0.92,1.1c0.83,0.17,1.54,0.69,1.96,1.42c0.42,0.73,0.51,1.61,0.25,2.41c-0.17,0.51,0.04,1.06,0.49,1.35
			c0.72,0.45,1.21,1.18,1.36,2.01c0.15,0.83-0.07,1.69-0.59,2.35c-0.33,0.42-0.33,1.01,0,1.43c0.52,0.66,0.74,1.52,0.59,2.35
			C37.04,43.9,36.54,44.63,35.83,45.08z"/>
		<path class="st0" d="M22.08,46.92c-0.61,0-1.19,0.53-1.16,1.16c0.03,0.63,0.51,1.16,1.16,1.16c0.61,0,1.19-0.53,1.16-1.16
			C23.21,47.45,22.73,46.92,22.08,46.92z"/>
		<path class="st0" d="M20.56,52.52c-0.61,0-1.19,0.53-1.16,1.16c0.03,0.63,0.51,1.16,1.16,1.16c0.61,0,1.19-0.53,1.16-1.16
			C21.69,53.06,21.21,52.52,20.56,52.52z"/>
		<path class="st0" d="M16.47,48.44c-0.61,0-1.19,0.53-1.16,1.16c0.03,0.63,0.51,1.16,1.16,1.16c0.61,0,1.19-0.53,1.16-1.16
			C17.61,48.97,17.13,48.44,16.47,48.44z"/>
		<path class="st0" d="M31.62,43.72c-0.61,0-1.19,0.53-1.16,1.16c0.03,0.63,0.51,1.16,1.16,1.16c0.61,0,1.19-0.53,1.16-1.16
			C32.75,44.25,32.27,43.72,31.62,43.72z"/>
	</g>
	<g id="Icon_26_">
		<path class="st0" d="M51.97,16.53c-0.21-1.2-0.83-2.28-1.73-3.07c0.18-1.19-0.04-2.41-0.65-3.46c-0.61-1.05-1.56-1.86-2.67-2.29
			c-0.23-1.18-0.86-2.25-1.79-3.03c-0.93-0.78-2.1-1.21-3.3-1.24c-0.62-1.03-1.58-1.82-2.72-2.24c-1.14-0.42-2.38-0.42-3.52-0.04
			C34.66,0.42,33.49,0,32.28,0c-1.21,0-2.39,0.42-3.32,1.17c-1.14-0.39-2.38-0.38-3.52,0.04s-2.1,1.21-2.72,2.24
			c-1.2,0.03-2.37,0.46-3.3,1.24c-0.93,0.78-1.56,1.85-1.79,3.03c-1.12,0.43-2.07,1.24-2.67,2.29c-0.61,1.05-0.83,2.28-0.65,3.46
			c-0.9,0.79-1.52,1.87-1.73,3.07c-0.21,1.2,0,2.42,0.58,3.47c-0.44,0.8-0.66,1.7-0.65,2.61c0.67-0.35,1.46-0.56,2.38-0.57
			c0.08-0.48,0.27-0.94,0.58-1.33c0.33-0.42,0.33-1.01,0-1.43c-0.52-0.67-0.74-1.52-0.59-2.35c0.15-0.83,0.64-1.56,1.36-2.01
			c0.45-0.28,0.66-0.84,0.49-1.35c-0.26-0.8-0.17-1.68,0.25-2.41c0.42-0.73,1.14-1.25,1.96-1.42c0.52-0.11,0.9-0.56,0.92-1.1
			C19.88,7.8,20.27,7,20.91,6.46s1.5-0.78,2.33-0.67c0.53,0.08,1.04-0.22,1.24-0.72c0.32-0.78,0.95-1.4,1.74-1.69
			c0.79-0.29,1.67-0.23,2.42,0.17c0.47,0.25,1.05,0.15,1.41-0.25c0.56-0.63,1.37-0.99,2.22-0.99c0.84,0,1.65,0.36,2.21,0.99
			c0.36,0.4,0.94,0.5,1.41,0.25c0.75-0.4,1.63-0.46,2.42-0.17c0.79,0.29,1.43,0.9,1.74,1.69c0.2,0.5,0.71,0.79,1.24,0.72
			c0.84-0.12,1.69,0.12,2.33,0.67C44.29,7,44.67,7.8,44.7,8.64c0.02,0.53,0.4,0.99,0.92,1.1c0.83,0.17,1.54,0.69,1.96,1.42
			c0.42,0.73,0.51,1.61,0.25,2.41c-0.17,0.51,0.04,1.06,0.49,1.35c0.72,0.45,1.21,1.18,1.36,2.01c0.15,0.83-0.07,1.69-0.59,2.35
			c-0.33,0.42-0.33,1.01,0,1.43c0.52,0.67,0.74,1.52,0.59,2.35s-0.64,1.56-1.36,2.01c-0.45,0.28-0.66,0.84-0.49,1.35
			c0.26,0.8,0.17,1.68-0.25,2.41c-0.42,0.73-1.14,1.25-1.96,1.42c-0.52,0.11-0.9,0.56-0.92,1.1c-0.03,0.84-0.41,1.64-1.06,2.18
			c-0.65,0.54-1.5,0.78-2.33,0.67c-0.53-0.08-1.04,0.22-1.24,0.72c-0.32,0.78-0.95,1.4-1.74,1.69c-0.06,0.02-0.12,0.03-0.18,0.05
			c0.13,0.79,0.1,1.61-0.09,2.39c0.36-0.05,0.72-0.13,1.07-0.25c1.14-0.42,2.1-1.21,2.72-2.24c1.2-0.03,2.37-0.46,3.3-1.24
			c0.93-0.78,1.56-1.85,1.79-3.03c1.12-0.43,2.07-1.24,2.67-2.29c0.61-1.05,0.83-2.28,0.65-3.46c0.9-0.79,1.52-1.87,1.73-3.07
			c0.21-1.2,0-2.42-0.58-3.47C51.97,18.95,52.18,17.72,51.97,16.53z"/>
		<path class="st0" d="M44.12,23.72c-0.61,0-1.19,0.53-1.16,1.16c0.03,0.63,0.51,1.16,1.16,1.16c0.61,0,1.19-0.53,1.16-1.16
			C45.25,24.25,44.77,23.72,44.12,23.72z"/>
	</g>
</g>
</svg>
