<?xml version="1.0" encoding="utf-8"?>
<!-- Generator: Adobe Illustrator 23.1.0, SVG Export Plug-In . SVG Version: 6.00 Build 0)  -->
<svg version="1.1" id="Слой_1" xmlns="http://www.w3.org/2000/svg" xmlns:xlink="http://www.w3.org/1999/xlink" x="0px" y="0px"
	 viewBox="0 0 40 40" style="enable-background:new 0 0 40 40;" xml:space="preserve">
<style type="text/css">
	.st0{fill:#FFFFFF;}
	.st1{fill:#D4AF93;}
</style>
<g id="Ico_4_">
	<circle id="Frame_3_" class="st0" cx="20" cy="20" r="20"/>
	<path id="Ico_5_" class="st1" d="M28.89,12H11.11c-0.98,0-1.78,0.8-1.78,1.78v12.44c0,0.98,0.8,1.78,1.78,1.78h17.78
		c0.98,0,1.78-0.8,1.78-1.78V13.78C30.67,12.8,29.87,12,28.89,12z M11.11,12.89h17.78c0.07,0,0.12,0.02,0.18,0.04
		c-1.54,1.41-6.64,6.08-8.43,7.69c-0.14,0.13-0.36,0.28-0.64,0.28c-0.28,0-0.51-0.15-0.65-0.28c-1.79-1.61-6.89-6.28-8.43-7.69
		C10.99,12.91,11.05,12.89,11.11,12.89z M10.22,26.22V13.78c0-0.09,0.03-0.17,0.05-0.25c1.18,1.08,4.74,4.34,7.05,6.44
		c-2.3,1.98-5.86,5.35-7.05,6.49C10.25,26.38,10.22,26.3,10.22,26.22z M28.89,27.11H11.11c-0.07,0-0.13-0.02-0.2-0.04
		c1.23-1.17,4.81-4.57,7.07-6.5c0.29,0.27,0.56,0.51,0.78,0.7c0.37,0.33,0.8,0.51,1.24,0.51s0.87-0.17,1.24-0.5
		c0.21-0.19,0.48-0.44,0.78-0.7c2.26,1.93,5.85,5.33,7.07,6.5C29.02,27.09,28.96,27.11,28.89,27.11z M29.78,26.22
		c0,0.08-0.03,0.16-0.05,0.23c-1.19-1.13-4.75-4.51-7.05-6.49c2.31-2.1,5.87-5.36,7.05-6.44c0.02,0.08,0.05,0.16,0.05,0.25V26.22z"
		/>
</g>
</svg>
