<?xml version="1.0" encoding="utf-8"?>
<!-- Generator: Adobe Illustrator 23.1.0, SVG Export Plug-In . SVG Version: 6.00 Build 0)  -->
<svg version="1.1" id="Слой_1" xmlns="http://www.w3.org/2000/svg" xmlns:xlink="http://www.w3.org/1999/xlink" x="0px" y="0px"
	 viewBox="0 0 76.82 60" style="enable-background:new 0 0 76.82 60;" xml:space="preserve">
<style type="text/css">
	.st0{fill:#A5A5A5;}
</style>
<g id="Icon_24_">
	<path class="st0" d="M70.29,10.45c-3.5-2.79-8.45-5.08-14.69-6.79C43.57,0.36,30.02,0,24.76,0C11.11,0,0,11.11,0,24.76v10.49
		C0,48.89,11.11,60,24.76,60c6.29,0,11.02-1.97,16.03-4.06c5.18-2.16,10.53-4.39,18.05-4.39c9.92,0,17.98-8.07,17.98-17.98V23.08
		C76.82,18.15,74.62,13.9,70.29,10.45z M69.02,36.1c0.57,0.6,1.52,0.63,2.12,0.06c1.02-0.96,1.91-2.03,2.67-3.17v0.58
		c0,8.26-6.72,14.98-14.98,14.98c-8.13,0-13.76,2.35-19.21,4.62C34.91,55.14,30.45,57,24.76,57C13.23,57,3.77,47.99,3.05,36.64
		c4.21,7.66,12.36,12.87,21.71,12.87c6.29,0,11.02-1.97,16.03-4.06c5.18-2.16,10.53-4.39,18.05-4.39c0.56,0,1.12-0.03,1.68-0.08
		c0.83-0.08,1.43-0.81,1.35-1.63c-0.08-0.82-0.81-1.43-1.63-1.35c-0.46,0.04-0.93,0.07-1.4,0.07c-8.13,0-13.76,2.35-19.21,4.62
		c-4.72,1.97-9.18,3.83-14.87,3.83C12.76,46.51,3,36.75,3,24.76C3,12.76,12.76,3,24.76,3C29.9,3,43.13,3.35,54.8,6.55
		c12.62,3.47,19.02,9.03,19.02,16.53c0,4.1-1.72,8.07-4.73,10.9C68.48,34.54,68.45,35.49,69.02,36.1z"/>
	<path class="st0" d="M67.79,37.06c-0.35-0.75-1.25-1.07-2-0.72c-0.01,0-0.03,0.01-0.04,0.02c-0.74,0.37-1.04,1.27-0.67,2.01
		c0.26,0.53,0.79,0.83,1.34,0.83c0.22,0,0.45-0.05,0.66-0.15C67.82,38.68,68.14,37.8,67.79,37.06z"/>
	<path class="st0" d="M35.59,6.42l-0.08-0.01c-0.83-0.06-1.55,0.55-1.61,1.38c-0.07,0.83,0.55,1.55,1.38,1.61l0.08,0.01
		c0.04,0,0.08,0,0.12,0c0.77,0,1.43-0.6,1.49-1.38C37.03,7.21,36.41,6.49,35.59,6.42z"/>
	<path class="st0" d="M69.88,19.04c-1.49-2.94-4.8-5.48-9.84-7.55c-4.08-1.68-8.54-2.74-11.57-3.33c-1.81-0.36-3.71-0.67-5.65-0.94
		C42,7.1,41.24,7.67,41.13,8.49c-0.11,0.82,0.46,1.58,1.28,1.69c1.88,0.26,3.73,0.57,5.48,0.92c10.31,2.02,17.34,5.41,19.31,9.29
		c0.41,0.82,0.61,1.7,0.61,2.69c0,4.95-4.03,8.98-8.98,8.98c-5.01,0-9.87,0.82-14.86,2.5c-2.15,0.73-4.24,1.59-6.26,2.43
		c-1.34,0.55-2.72,1.13-4.09,1.65c-3.46,1.31-6.11,1.87-8.87,1.87C16.07,40.51,9,33.44,9,24.76C9,16.07,16.07,9,24.76,9
		c1.69,0,3.42,0.03,5.11,0.1c0.29,0.01,0.58,0.02,0.87,0.03c0.83,0.04,1.53-0.6,1.56-1.43c0.04-0.83-0.6-1.53-1.43-1.56
		c-0.3-0.01-0.59-0.02-0.89-0.04C28.25,6.03,26.49,6,24.76,6C14.41,6,6,14.41,6,24.76c0,10.34,8.41,18.75,18.75,18.75
		c3.14,0,6.11-0.62,9.93-2.07c1.41-0.54,2.82-1.12,4.18-1.68c1.97-0.82,4.01-1.67,6.07-2.36c4.68-1.58,9.23-2.34,13.9-2.34
		c6.61,0,11.98-5.37,11.98-11.98C70.82,21.61,70.51,20.28,69.88,19.04z"/>
	<path class="st0" d="M26.19,11.97c-4.19,0-7.61,3.09-7.61,6.9s3.41,6.9,7.61,6.9c4.19,0,7.61-3.09,7.61-6.9
		S30.39,11.97,26.19,11.97z M26.19,22.76c-2.54,0-4.61-1.75-4.61-3.9c0-2.15,2.07-3.9,4.61-3.9s4.61,1.75,4.61,3.9
		S28.73,22.76,26.19,22.76z"/>
</g>
</svg>
