<?xml version="1.0" encoding="utf-8"?>
<!-- Generator: Adobe Illustrator 23.1.0, SVG Export Plug-In . SVG Version: 6.00 Build 0)  -->
<svg version="1.1" id="Слой_1" xmlns="http://www.w3.org/2000/svg" xmlns:xlink="http://www.w3.org/1999/xlink" x="0px" y="0px"
	 viewBox="0 0 21.96 20" style="enable-background:new 0 0 21.96 20;" xml:space="preserve">
<style type="text/css">
	.st0{fill:#A5A5A5;}
</style>
<g id="Ico_47_">
	<path class="st0" d="M15.69,20c-0.1,0-0.2-0.04-0.28-0.11l-3.41-3.41H1.96C0.88,16.47,0,15.59,0,14.51V1.96C0,0.88,0.88,0,1.96,0
		H20c1.08,0,1.96,0.88,1.96,1.96v12.55c0,1.08-0.88,1.96-1.96,1.96h-3.92v3.14c0,0.16-0.1,0.3-0.24,0.36
		C15.79,19.99,15.74,20,15.69,20z M1.96,0.78c-0.65,0-1.18,0.53-1.18,1.18v12.55c0,0.65,0.53,1.18,1.18,1.18h10.2
		c0.1,0,0.2,0.04,0.28,0.11l2.86,2.86v-2.58c0-0.22,0.18-0.39,0.39-0.39H20c0.65,0,1.18-0.53,1.18-1.18V1.96
		c0-0.65-0.53-1.18-1.18-1.18H1.96z"/>
	<path class="st0" d="M16.08,5.49H5.88c-0.22,0-0.39-0.18-0.39-0.39s0.18-0.39,0.39-0.39h10.2c0.22,0,0.39,0.18,0.39,0.39
		S16.3,5.49,16.08,5.49z"/>
	<path class="st0" d="M16.08,7.84H5.88c-0.22,0-0.39-0.18-0.39-0.39c0-0.22,0.18-0.39,0.39-0.39h10.2c0.22,0,0.39,0.18,0.39,0.39
		C16.47,7.67,16.3,7.84,16.08,7.84z"/>
	<path class="st0" d="M10.59,10.2H5.88c-0.22,0-0.39-0.18-0.39-0.39s0.18-0.39,0.39-0.39h4.71c0.22,0,0.39,0.18,0.39,0.39
		S10.8,10.2,10.59,10.2z"/>
</g>
</svg>
