<?xml version="1.0" encoding="utf-8"?>
<!-- Generator: Adobe Illustrator 23.1.0, SVG Export Plug-In . SVG Version: 6.00 Build 0)  -->
<svg version="1.1" id="Слой_1" xmlns="http://www.w3.org/2000/svg" xmlns:xlink="http://www.w3.org/1999/xlink" x="0px" y="0px"
	 viewBox="0 0 390 280" style="enable-background:new 0 0 390 280;" xml:space="preserve">
<style type="text/css">
	.st0{fill:#FFFFFF;}
</style>
<g id="Icon_30_">
	<path id="Static_8_" class="st0" d="M379.44,117.05l-97.24,23.66c-2.17,0.53-4.01,0.84-5.72,0c-5.96-9.87-19.4-18.7-39.27-25.57
		c-26.04-9-60.56-13.96-97.22-13.96c-36.65,0-71.18,4.96-97.22,13.96C15.19,124.67,0,137.98,0,152.62c0,4.62,1.52,9.11,4.46,13.39
		c8.17,19.81,28.95,50.79,49.9,58.69c26.31,9.92,47.75,15.3,85.63,15.3c42.79,0,65.57-7.74,88.89-17.1
		c19.6-7.86,39.03-37.82,46.76-57.06c1.02-1.51,1.86-3.05,2.53-4.61c3.75-4.93,10.11-9.64,17.21-10.74
		c35.71-5.54,54.17-7.39,84.07-12.33c6.12-1.22,10.56-4.73,10.56-10.56C390,121.78,385.56,115.66,379.44,117.05z M226.03,215.81
		c-23.37,9.37-44.54,16.55-86.04,16.55c-36.71,0-57.46-5.2-82.93-14.81c-13.91-5.25-27.7-22.23-37.01-37.77
		c6.22,3.78,13.82,7.25,22.72,10.33c26.04,9,60.56,13.96,97.22,13.96c36.65,0,71.18-4.96,97.22-13.96
		c8.94-3.09,16.56-6.58,22.8-10.38C251.21,194.66,238.5,210.8,226.03,215.81z M41.91,125.49c23.18-8.79,57.37-15,98.08-15
		c40.71,0,74.9,6.21,98.08,15c6.56,2.49,12.23,5.18,16.93,8c5.53,3.32,9.7,6.82,12.34,10.35c0.29,0.39,0.57,0.78,0.82,1.17
		c1.65,2.54,2.51,5.09,2.51,7.6c0,2.81-1.07,5.66-3.12,8.49c-3.22,4.46-8.89,8.85-16.65,12.93
		c-14.75-21.14-58.21-36.08-110.91-36.08c-52.7,0-96.16,14.94-110.91,36.08c-12.69-6.66-19.76-14.19-19.76-21.42
		c0-2.51,0.86-5.06,2.51-7.6c2.55-3.93,7.02-7.83,13.16-11.52C29.68,130.68,35.35,127.98,41.91,125.49z M37.68,178.06
		c12.75-16.4,50.69-30.79,102.31-30.79c51.62,0,89.56,14.39,102.31,30.79c-23.15,9.67-59.05,16.68-102.31,16.68
		S60.83,187.73,37.68,178.06z M374.45,125.85c-3.47,0.56-6.47-0.08-6.68-1.42c-0.22-1.34,2.43-2.88,5.9-3.44
		c3.47-0.56,6.47,0.08,6.68,1.42C380.56,123.75,377.92,125.29,374.45,125.85z"/>
	<g id="Animated_4_">
		<path id="XMLID_36_" class="st0" d="M91.01,255.36c0,0-16.93,24.64,0,24.64S91.01,255.36,91.01,255.36z"/>
		<path id="XMLID_35_" class="st0" d="M114.69,255.36c0,0-16.93,24.64,0,24.64S114.69,255.36,114.69,255.36z"/>
		<path id="XMLID_34_" class="st0" d="M67.33,255.36c0,0-16.93,24.64,0,24.64C84.26,280,67.33,255.36,67.33,255.36z"/>
		<path id="XMLID_33_" class="st0" d="M138.36,255.36c0,0-16.93,24.64,0,24.64S138.36,255.36,138.36,255.36z"/>
		<path id="XMLID_30_" class="st0" d="M162.04,255.36c0,0-16.93,24.64,0,24.64C178.98,280,162.04,255.36,162.04,255.36z"/>
		<path id="XMLID_29_" class="st0" d="M185.72,255.36c0,0-16.93,24.64,0,24.64S185.72,255.36,185.72,255.36z"/>
		<path id="XMLID_27_" class="st0" d="M209.4,255.36c0,0-16.93,24.64,0,24.64S209.4,255.36,209.4,255.36z"/>
	</g>
	<g id="Animated_3_">
		<path id="XMLID_23_" class="st0" d="M114.23,24.31c4.94,2.86,10.49,7.46,10.58,15.28c-0.42,7.74-5.43,12.42-8.16,16.87
			c-3.16,4.47-5.05,8.36-5.04,13.75c-0.18,4.84,1.56,10.35,3.31,16.07c-4.44-3.93-8.28-8.96-9.5-15.72l-0.35-2.15
			c-0.09-1.12-0.06-1.77-0.05-2.68c0.09-1.7,0.34-3.41,0.79-5.06c0.95-3.27,2.61-6.17,4.31-8.72c3.54-5,7.56-8.91,8.55-12.97
			C119.77,34.86,117.12,29.47,114.23,24.31z"/>
		<path id="XMLID_13_" class="st0" d="M143.75,0c2.84,2.07,5.49,4.77,7.63,8.29c2.09,3.45,3.69,8.39,3.11,13.5
			c-1.28,10.29-6.71,16.2-9.49,22.49c-3.27,6.06-4.38,12.27-3.71,19.59c0.53,7.13,3.64,14.33,5.43,22.43
			c-4.49-5.83-9.34-11.88-11.47-20.73c-1.13-4.35-1.42-8.9-0.97-13.72c0.59-4.74,2.19-9.11,4-12.86
			c3.77-7.38,8.64-12.83,10.16-18.65C150.13,14.6,147.1,7.02,143.75,0z"/>
		<path id="XMLID_11_" class="st0" d="M169.38,26.38c4.86,2.79,10.25,7.18,10.62,14.76c-0.08,7.63-4.99,12.45-7.76,16.77
			c-3.16,4.31-5.27,8.3-5.55,13.17c-0.47,4.99,0.89,10.2,2.51,15.88c-4.34-3.79-7.93-9.19-8.7-15.57
			c-1.23-6.55,1.84-13.4,5.28-18.08c3.5-4.78,7.25-8.59,8.05-12.55C174.79,36.69,172.16,31.45,169.38,26.38z"/>
	</g>
</g>
</svg>
