<?xml version="1.0" encoding="utf-8"?>
<!-- Generator: Adobe Illustrator 23.1.0, SVG Export Plug-In . SVG Version: 6.00 Build 0)  -->
<svg version="1.1" id="Слой_1" xmlns="http://www.w3.org/2000/svg" xmlns:xlink="http://www.w3.org/1999/xlink" x="0px" y="0px"
	 viewBox="0 0 231.28 280" style="enable-background:new 0 0 231.28 280;" xml:space="preserve">
<style type="text/css">
	.st0{fill:#FFFFFF;}
</style>
<g id="Icon_39_">
	<g id="Static_10_">
		<path class="st0" d="M71.24,221.99c0.24,3.85,1.93,7.43,4.74,10.07c2.81,2.64,6.48,4.1,10.34,4.1h75.34
			c3.8,0,7.43-1.42,10.22-3.99s4.51-6.08,4.83-9.86l4.52-53.75c0.2-2.42-0.62-4.82-2.26-6.61c-1.64-1.78-3.97-2.81-6.39-2.81
			l-48.72,0l-47.34,0c0,0,0,0,0,0c-2.39,0-4.69,1-6.33,2.74c-1.63,1.74-2.48,4.11-2.33,6.5L71.24,221.99z M72.76,164.29
			c0.98-1.05,2.32-1.63,3.75-1.63c0,0,0,0,0,0l47.34,0h0l48.72,0c1.46,0,2.8,0.59,3.79,1.67c0.99,1.07,1.46,2.47,1.34,3.92
			l-4.52,53.75c-0.5,5.95-5.57,10.62-11.53,10.62H86.31c-6.09,0-11.17-4.77-11.55-10.86l-3.39-53.62
			C71.28,166.71,71.77,165.34,72.76,164.29z"/>
		<path class="st0" d="M214.04,123.62H27.78c-4.45,0-8.16,3.34-8.64,7.77c-0.26,2.45,0.53,4.91,2.18,6.74
			c1.64,1.83,4,2.88,6.46,2.88h2.27l2.43,105.91c0.01,4.45,0.88,8.78,2.6,12.85c1.67,3.94,4.05,7.48,7.09,10.52
			c3.04,3.04,6.57,5.43,10.51,7.09c4.08,1.73,8.41,2.6,12.87,2.6h112.2c4.46,0,8.8-0.88,12.87-2.6c3.94-1.67,7.48-4.06,10.51-7.09
			c3.04-3.04,5.42-6.58,7.09-10.52c1.72-4.07,2.6-8.4,2.6-12.85l2.43-105.91h0.78c2.46,0,4.82-1.05,6.46-2.88
			c1.64-1.83,2.44-4.29,2.18-6.74C222.2,126.96,218.49,123.62,214.04,123.62z M203.99,246.81c0,0.03,0,0.05,0,0.08
			c0,14.49-11.77,26.27-26.24,26.27H65.55c-14.47,0-26.24-11.79-26.24-26.27c0-0.03,0-0.05,0-0.08l-2.43-105.79h169.54
			L203.99,246.81z M217.88,135.77c-0.99,1.1-2.35,1.71-3.83,1.71H27.78c-1.48,0-2.84-0.61-3.83-1.71c-0.99-1.1-1.45-2.52-1.29-4
			c0.28-2.63,2.48-4.61,5.12-4.61h186.27c2.64,0,4.84,1.98,5.12,4.61C219.32,133.25,218.87,134.67,217.88,135.77z"/>
		<path class="st0" d="M101.82,199.41h44.11c3.53,0,6.4-2.87,6.4-6.41v-14.48c0-3.53-2.87-6.41-6.4-6.41h-44.11
			c-3.53,0-6.4,2.87-6.4,6.41v14.48C95.42,196.54,98.29,199.41,101.82,199.41z M98.95,178.53c0-1.58,1.29-2.87,2.87-2.87h44.11
			c1.58,0,2.87,1.29,2.87,2.87v14.48c0,1.58-1.29,2.87-2.87,2.87h-44.11c-1.58,0-2.87-1.29-2.87-2.87V178.53z"/>
		<path class="st0" d="M108.06,209.12c-4.58,0-8.31,3.73-8.31,8.32c0,4.59,3.73,8.32,8.31,8.32c4.58,0,8.31-3.73,8.31-8.32
			C116.37,212.85,112.64,209.12,108.06,209.12z M108.06,222.23c-2.64,0-4.78-2.15-4.78-4.79c0-2.64,2.15-4.79,4.78-4.79
			c2.64,0,4.78,2.15,4.78,4.79C112.84,220.08,110.7,222.23,108.06,222.23z"/>
		<path class="st0" d="M139.92,209.12c-4.58,0-8.31,3.73-8.31,8.32c0,4.59,3.73,8.32,8.31,8.32c4.58,0,8.31-3.73,8.31-8.32
			C148.23,212.85,144.5,209.12,139.92,209.12z M139.92,222.23c-2.64,0-4.78-2.15-4.78-4.79c0-2.64,2.15-4.79,4.78-4.79
			c2.64,0,4.78,2.15,4.78,4.79C144.7,220.08,142.56,222.23,139.92,222.23z"/>
		<rect x="78.4" y="174.6" class="st0" width="10.81" height="3.54"/>
		<rect x="78.4" y="187.15" class="st0" width="10.81" height="3.54"/>
		<rect x="78.4" y="199.71" class="st0" width="10.81" height="3.54"/>
		<rect x="78.4" y="212.27" class="st0" width="10.81" height="3.54"/>
		<rect x="157.36" y="174.6" class="st0" width="10.81" height="3.54"/>
		<rect x="157.36" y="187.15" class="st0" width="10.81" height="3.54"/>
		<rect x="157.36" y="199.71" class="st0" width="10.81" height="3.54"/>
		<rect x="157.36" y="212.27" class="st0" width="10.81" height="3.54"/>
		<path class="st0" d="M223.39,128.79l3.86-4.36c0.13-0.15,0.25-0.31,0.36-0.48c0.24-0.25,0.5-0.53,0.74-0.82
			c1.53-1.81,2.48-4.07,2.8-6.71c0.29-2.35,0.08-5.02-0.61-7.95c-1.31-5.48-4.31-11.91-8.94-19.09
			c-4.65-7.22-10.78-14.98-18.22-23.06c-5.73-6.22-12.13-12.51-19.11-18.78l2.56-3.02c2.32-2.75,1.98-6.87-0.76-9.19l-5.95-5.03
			c-2.74-2.32-6.87-1.97-9.19,0.77l-2.57,3.04c-7.48-5.9-14.94-11.18-22.25-15.76c-9.08-5.68-17.73-10.17-25.73-13.33
			c-7.57-2.99-14.2-4.67-19.68-4.97c-2.82-0.16-5.3,0.06-7.39,0.65C90.9,1.37,89,2.53,87.65,4.13C87.4,4.42,87.17,4.71,86.97,5
			c-0.15,0.13-0.29,0.28-0.42,0.43l-3.66,4.53l-2.28,2.7l140.5,118.83L223.39,128.79z M173.62,33.35c1.06-1.26,2.95-1.42,4.21-0.35
			l5.95,5.03c1.26,1.06,1.41,2.95,0.35,4.21l-2.5,2.96c-1.71-1.5-3.44-3-5.21-4.5c-1.77-1.5-3.54-2.96-5.31-4.39L173.62,33.35z
			 M221.62,120.49l-3.45,3.89l-130.06-110l3.27-4.05c0.26-0.2,0.49-0.44,0.68-0.71l0.01-0.02c0.28-0.39,0.54-0.76,0.8-1.06
			c1.06-1.26,3.77-1.87,7.43-1.66c4.68,0.26,10.75,1.82,17.55,4.5c13.99,5.53,30.32,15.5,46.69,28.44c0.09,0.33,0.28,0.64,0.56,0.88
			l13.21,11.17c0.29,0.25,0.64,0.38,0.99,0.41c15.75,14.13,28.57,28.41,36.55,40.82c4.15,6.44,6.93,12.31,8.04,16.98
			c0.66,2.76,1.06,6.51-0.75,8.65c-0.26,0.3-0.58,0.62-0.91,0.96l-0.01,0.01C221.97,119.93,221.77,120.2,221.62,120.49z"/>
	</g>
	<g id="Animated_10_">
		<path class="st0" d="M58.39,97.41c-1.28,1.73-2.95,3.16-4.92,4.18c-3.4,1.76-7.28,2.09-10.94,0.94c-3.75-1.2-6.79-3.86-8.5-7.32
			c-5.12,6.11-13.52,8.46-21.22,5.7c-4.85-1.73-8.74-5.25-10.95-9.91c-2.2-4.65-2.46-9.89-0.73-14.75c1.7-4.77,5.17-8.63,9.67-10.82
			C3.28,56.86,3.25,44,11.01,35.38c7.76-8.65,20.82-9.93,30.07-3.29c1.42-5.55,5.17-10.28,10.34-12.92
			c4.78-2.44,10.22-2.86,15.32-1.2c5.1,1.66,9.24,5.2,11.67,9.98c2.44,4.78,2.86,10.22,1.2,15.32c-1.66,5.1-5.2,9.24-9.98,11.67
			l-1.18-2.33c4.15-2.11,7.23-5.72,8.68-10.15c1.44-4.44,1.07-9.17-1.05-13.32c-2.11-4.15-5.72-7.24-10.15-8.68
			c-4.44-1.44-9.17-1.07-13.32,1.05c-5.07,2.59-8.57,7.5-9.36,13.13l-0.34,2.4l-1.82-1.6c-8.21-7.21-20.83-6.44-28.13,1.7
			c-7.26,8.07-6.82,20.29,1,27.83l1.5,1.44l-1.95,0.72c-4.64,1.72-8.25,5.37-9.9,10.01C0.5,85.8,5.03,95.36,13.69,98.45
			c7.33,2.62,15.39-0.1,19.59-6.63l1.55-2.4l0.81,2.74c1.1,3.74,3.98,6.69,7.69,7.88c2.99,0.95,6.16,0.67,8.94-0.77
			c2.78-1.44,4.82-3.88,5.77-6.86l2.49,0.79C60.04,94.74,59.31,96.16,58.39,97.41z"/>
		
			<rect x="76.33" y="49.85" transform="matrix(0.5944 -0.8042 0.8042 0.5944 -25.5026 91.1753)" class="st0" width="2.61" height="42.03"/>
		
			<rect x="80.06" y="63.33" transform="matrix(0.5944 -0.8042 0.8042 0.5944 -36.6339 100.5546)" class="st0" width="2.61" height="46.53"/>
		
			<rect x="65.56" y="61.63" transform="matrix(0.5944 -0.8042 0.8042 0.5944 -44.3222 89.8028)" class="st0" width="2.61" height="54.41"/>
	</g>
</g>
</svg>
