<?xml version="1.0" encoding="utf-8"?>
<!-- Generator: Adobe Illustrator 23.1.0, SVG Export Plug-In . SVG Version: 6.00 Build 0)  -->
<svg version="1.1" id="Слой_1" xmlns="http://www.w3.org/2000/svg" xmlns:xlink="http://www.w3.org/1999/xlink" x="0px" y="0px"
	 viewBox="0 0 207.38 162.58" style="enable-background:new 0 0 207.38 162.58;" xml:space="preserve">
<style type="text/css">
	.st0{fill:#FFFFFF;}
</style>
<g id="Meat_balls_1_">
	<g id="_x36__1_">
		<path class="st0" d="M177.9,149.61c-0.7-0.26-1.35-0.57-1.91-0.97c-2.9-2.08-4.66-6.68-6.07-8.81c-0.88-1.32-1.67-2.97-1.96-4.7
			c-0.19-1.06-0.18-2.16,0.1-3.22c0.74-2.82,2.7-7.65,5.39-9.15c2.38-1.33,3.47-1.07,5.09-3.11c1.43-1.8,7.04-2.48,11.08-1
			c0.54,0.2,1.04,0.43,1.51,0.7c1.33,0.78,2.36,1.22,3.22,1.53c0.69,0.25,1.27,0.42,1.83,0.63c0.84,0.31,1.62,0.69,2.61,1.52
			c2.46,2.07,3.34,4.73,4.72,6.56c2.19,2.89,0.46,9.68-1.72,11.52c-1.45,1.22-2.65,3.89-3.93,5.98c-0.36,0.58-0.73,1.12-1.11,1.57
			c-1.68,1.97-6.73,4.26-9.35,3.3c-0.08-0.03-0.15-0.06-0.22-0.09c-0.18-0.09-0.38-0.17-0.58-0.24
			C184.22,150.74,180.64,150.61,177.9,149.61 M176.93,152.28L176.93,152.28c1.65,0.6,3.42,0.91,5.13,1.21
			c1.37,0.24,2.66,0.46,3.57,0.8c0.12,0.05,0.24,0.09,0.36,0.15c0.15,0.07,0.3,0.13,0.45,0.19c3.97,1.45,10.21-1.46,12.49-4.13
			c0.44-0.52,0.88-1.13,1.36-1.92c0.39-0.64,0.77-1.31,1.13-1.95c0.73-1.31,1.56-2.8,2.21-3.34c3.18-2.67,5.4-11.12,2.16-15.4
			c-0.36-0.47-0.73-1.11-1.12-1.79c-0.91-1.57-2.03-3.53-4.04-5.23c-1.38-1.16-2.52-1.67-3.46-2.01c-0.29-0.11-0.59-0.21-0.9-0.31
			c-0.29-0.1-0.6-0.2-0.93-0.32c-0.63-0.23-1.51-0.59-2.76-1.32c-0.6-0.35-1.26-0.66-1.97-0.92c-4.67-1.71-11.76-1.26-14.28,1.9
			c-0.62,0.77-0.92,0.9-1.91,1.3c-0.62,0.25-1.39,0.57-2.34,1.1c-4.35,2.42-6.39,9.51-6.76,10.91c-0.37,1.4-0.42,2.89-0.15,4.43
			c0.41,2.43,1.53,4.49,2.39,5.79c0.33,0.49,0.73,1.25,1.16,2.05c1.34,2.5,3,5.61,5.62,7.48
			C175.07,151.47,175.92,151.91,176.93,152.28L176.93,152.28z"/>
		<path class="st0" d="M199.06,138.79c-1,2.34-2.59,7.98-5.7,7.13c-3.11-0.85-4.04,1.15-6.08-0.47c-2.04-1.62-6.18-5.81-3.52-6.67
			c2.66-0.86,4.75-1.25,5.59-3.54c0.84-2.29,3.35-4.88,5.39-3.26C196.79,133.61,200.26,135.97,199.06,138.79z"/>
	</g>
	<g id="_x35__1_">
		<path class="st0" d="M128.79,87.93c0.77,0,1.51,0.08,2.19,0.27c3.54,0.99,6.87,4.82,9,6.38c1.32,0.97,2.66,2.28,3.56,3.86
			c0.56,0.96,0.94,2.02,1.05,3.16c0.28,2.99,0.09,8.36-1.98,10.77c-1.83,2.13-2.98,2.27-3.83,4.82c-0.75,2.25-5.94,4.89-10.38,4.89
			c-0.59,0-1.16-0.05-1.71-0.15c-1.57-0.28-2.71-0.35-3.66-0.35c-0.76,0-1.39,0.04-2,0.04c-0.92,0-1.81-0.09-3.06-0.54
			c-3.12-1.13-4.91-3.4-6.9-4.68c-3.15-2.02-3.88-9.21-2.41-11.76c0.98-1.7,1.18-4.71,1.69-7.18c0.14-0.69,0.31-1.34,0.52-1.91
			c0.93-2.51,5.02-6.51,7.89-6.51c0.08,0,0.17,0,0.25,0.01c0.21,0.02,0.43,0.03,0.65,0.03C122.26,89.07,125.78,87.93,128.79,87.93
			 M128.79,85L128.79,85c-1.81,0-3.64,0.33-5.4,0.65c-1.41,0.25-2.74,0.5-3.74,0.5c-0.14,0-0.27,0-0.4-0.02
			c-0.17-0.01-0.33-0.02-0.5-0.02c-4.36,0-9.38,5.03-10.63,8.42c-0.24,0.66-0.45,1.4-0.64,2.34c-0.15,0.76-0.28,1.54-0.4,2.29
			c-0.25,1.53-0.52,3.26-0.96,4.02c-2.13,3.71-1.29,12.69,3.36,15.68c0.52,0.33,1.1,0.82,1.71,1.34c1.43,1.2,3.22,2.7,5.77,3.63
			c1.75,0.64,3.03,0.72,4.06,0.72c0.32,0,0.65-0.01,0.99-0.02c0.32-0.01,0.65-0.02,1.01-0.02c0.69,0,1.67,0.03,3.14,0.3
			c0.71,0.13,1.46,0.19,2.23,0.19c5.13,0,11.84-2.95,13.16-6.9c0.32-0.97,0.57-1.19,1.39-1.94c0.51-0.46,1.15-1.04,1.88-1.89
			c3.35-3.89,2.82-11.48,2.68-12.96c-0.14-1.49-0.62-2.95-1.42-4.34c-1.26-2.2-3.07-3.8-4.37-4.76c-0.49-0.36-1.15-0.95-1.85-1.58
			c-2.18-1.95-4.89-4.37-8.09-5.26C130.86,85.12,129.89,85,128.79,85L128.79,85z"/>
		<path class="st0" d="M113.87,112.83c-0.15-5.55-0.8-11.64,2.87-11.24c3.67,0.4,15.95,8.93,16.99,11.24s1.44,5.98-3.03,6.06
			s-7.89-0.48-10.13-0.8C118.34,117.78,113.95,115.7,113.87,112.83z"/>
	</g>
	<g id="_x34__13_">
		<path class="st0" d="M67.87,124.58c2.81,0,5.09,1.06,7.17,1.35c3.66,0.5,7.31,6.62,7.07,9.52c-0.16,1.93,0.91,4.7,1.49,7.13
			c0.16,0.68,0.29,1.33,0.33,1.93c0.22,2.71-1.89,8.23-4.57,9.21c-3.06,1.12-6.77,5.17-10.36,5.76c-0.45,0.07-0.91,0.11-1.39,0.11
			c-3.31,0-7.09-1.61-9.33-2.05c-1.58-0.31-3.34-0.93-4.8-1.96c-0.9-0.63-1.68-1.42-2.25-2.39c-1.5-2.55-3.58-7.44-2.72-10.46
			c0.75-2.67,1.72-3.27,1.41-5.91c-0.3-2.64,4.27-8.09,8.83-9.3c4.56-1.2,4.89-2.59,8.16-2.88
			C67.24,124.59,67.56,124.58,67.87,124.58 M67.87,121.58c-0.41,0-0.82,0.02-1.22,0.05c-2.29,0.2-3.59,0.86-4.85,1.49
			c-0.96,0.48-1.95,0.99-3.81,1.48c-5.78,1.52-11.56,8.09-11.05,12.54c0.11,0.97,0,1.25-0.43,2.26c-0.26,0.63-0.59,1.42-0.89,2.49
			c-1.39,4.92,2.28,11.52,3.02,12.8c0.75,1.28,1.8,2.4,3.12,3.32c2.06,1.46,4.36,2.14,5.93,2.45c0.58,0.12,1.42,0.37,2.31,0.63
			c2.19,0.66,4.92,1.48,7.61,1.48c0.65,0,1.28-0.05,1.88-0.15c2.75-0.45,5.23-2.21,7.42-3.76c1.26-0.89,2.56-1.81,3.48-2.15
			c4.54-1.66,6.8-8.89,6.53-12.27c-0.06-0.69-0.18-1.45-0.41-2.38c-0.18-0.74-0.39-1.5-0.6-2.22c-0.4-1.39-0.89-3.12-0.82-3.96
			c0.36-4.25-4.18-12-9.65-12.74c-0.59-0.08-1.31-0.27-2.08-0.48C71.87,122.07,70.02,121.58,67.87,121.58L67.87,121.58z"/>
		<path class="st0" d="M65.91,155c-1.61,0-3.32-0.51-4.74-0.94c-0.62-0.19-1.21-0.36-1.66-0.45c-0.93-0.19-2.3-0.59-3.51-1.44
			c-0.73-0.51-1.32-1.13-1.73-1.84c-0.24-0.41-0.6-1.07-0.97-1.92c-0.17-0.39,0-0.85,0.39-1.03c0.39-0.18,0.85-0.02,1.04,0.36
			c0.15,0.3,0.3,0.58,0.44,0.82c0.3,0.51,0.73,0.97,1.28,1.35c0.99,0.7,2.13,1.03,2.91,1.19c0.52,0.1,1.12,0.44,1.8,0.49
			c15.79,1.09,13.11-13.49,13.2-14.56l0,0c0.03-0.37-0.09-0.94-0.33-1.56c-0.15-0.39,0.02-0.83,0.4-1.01
			c0.38-0.18,0.83-0.03,1.03,0.34c0.67,1.24,1.01,2.45,0.93,3.34c-0.07,0.78,0.27,1.95,0.59,3.08c0.14,0.49,0.28,0.97,0.39,1.44
			c0.13,0.56,0.21,1.01,0.24,1.41c0.17,2.12-1.39,6.17-3.57,6.97c-0.77,0.28-1.66,0.92-2.61,1.59c-1.43,1.01-2.9,2.05-4.46,2.31
			C66.63,154.97,66.27,155,65.91,155z"/>
	</g>
	<g id="_x33__32_">
		<path class="st0" d="M126.92,37.58c0.63,0.39,1.19,0.82,1.65,1.32c2.38,2.59,3.17,7.37,4.11,9.7c0.59,1.45,1.02,3.2,0.95,4.92
			c-0.03,1.06-0.25,2.12-0.74,3.09c-1.27,2.57-4.13,6.84-7.02,7.76c-2.56,0.81-3.56,0.35-5.53,1.99c-1.74,1.45-7.28,0.99-10.89-1.24
			c-0.48-0.3-0.92-0.62-1.32-0.98c-1.13-1.02-2.03-1.64-2.8-2.12c-0.61-0.38-1.15-0.66-1.65-0.97c-0.75-0.46-1.43-0.99-2.22-1.98
			c-1.96-2.49-2.28-5.23-3.25-7.27c-1.54-3.23,1.48-9.43,3.95-10.77c1.65-0.89,3.33-3.23,4.98-4.99c0.46-0.49,0.92-0.94,1.38-1.29
			c2.02-1.57,7.35-2.77,9.68-1.33c0.07,0.04,0.13,0.09,0.2,0.13c0.16,0.12,0.33,0.24,0.51,0.35
			C121.04,35.23,124.48,36.07,126.92,37.58 M128.39,35.2L128.39,35.2c-1.47-0.91-3.12-1.56-4.71-2.19c-1.27-0.5-2.48-0.98-3.29-1.48
			c-0.11-0.07-0.22-0.14-0.32-0.21c-0.13-0.09-0.26-0.18-0.4-0.27c-3.54-2.19-10.14-0.62-12.87,1.5c-0.53,0.41-1.07,0.91-1.7,1.58
			c-0.51,0.54-1,1.11-1.48,1.66c-0.97,1.12-2.07,2.39-2.8,2.79c-3.6,1.95-7.43,9.66-5.15,14.43c0.25,0.53,0.48,1.22,0.72,1.95
			c0.56,1.7,1.26,3.82,2.86,5.85c1.1,1.39,2.1,2.11,2.94,2.63c0.26,0.16,0.53,0.32,0.81,0.48c0.26,0.15,0.54,0.31,0.83,0.49
			c0.56,0.35,1.34,0.87,2.4,1.82c0.51,0.46,1.09,0.89,1.72,1.28c4.16,2.57,11.1,3.55,14.15,1.01c0.75-0.62,1.06-0.68,2.1-0.88
			c0.65-0.12,1.46-0.27,2.48-0.6c4.68-1.48,8.06-7.91,8.69-9.18c0.63-1.28,0.98-2.71,1.02-4.25c0.09-2.42-0.58-4.63-1.16-6.06
			c-0.22-0.54-0.46-1.35-0.71-2.21c-0.79-2.68-1.78-6.01-3.93-8.34C130.02,36.35,129.29,35.76,128.39,35.2L128.39,35.2z"/>
		<path class="st0" d="M130.93,56.29c-0.98,0.31-1.96-0.04-2.61-1.45c-1.94-4.24-5.06-6.19-6.73-5.82
			c-1.66,0.37-5.99,0.73-7.82-3.27c-1.04-2.27-3.69-4.28-6.7-5.19c0.42-0.44,0.83-0.84,1.24-1.16c1.87-1.46,6.9-2.56,8.9-1.07
			c2.28,1.7,7.01,2.47,9.15,4.8s2.85,6.64,3.7,8.74C130.59,53.16,130.98,54.73,130.93,56.29z"/>
	</g>
	<g id="_x32__35_">
		<path class="st0" d="M61.51,90.39c-0.36,0.62-0.76,1.17-1.22,1.62c-2.42,2.37-7.01,3.26-9.23,4.23c-1.38,0.61-3.05,1.07-4.71,1.06
			c-1.02,0-2.04-0.18-3-0.62c-2.51-1.15-6.71-3.78-7.67-6.54c-0.85-2.44-0.44-3.42-2.08-5.27c-1.45-1.64-1.17-6.98,0.88-10.52
			c0.27-0.47,0.57-0.9,0.9-1.3c0.95-1.12,1.53-2,1.96-2.76c0.35-0.6,0.61-1.12,0.89-1.61c0.42-0.74,0.91-1.4,1.84-2.19
			c2.34-1.96,4.97-2.35,6.9-3.34c3.06-1.58,9.13,1.15,10.48,3.5c0.9,1.56,3.2,3.11,4.95,4.65c0.49,0.43,0.93,0.86,1.28,1.29
			c1.57,1.9,2.88,6.99,1.55,9.28c-0.04,0.07-0.08,0.13-0.12,0.19c-0.11,0.16-0.22,0.33-0.32,0.5C63.6,84.67,62.89,88,61.51,90.39
			 M63.84,91.74L63.84,91.74c0.84-1.45,1.41-3.05,1.97-4.6c0.45-1.24,0.87-2.41,1.33-3.21c0.06-0.11,0.13-0.21,0.2-0.31
			c0.09-0.13,0.17-0.25,0.25-0.39c2.01-3.47,0.31-9.79-1.81-12.35c-0.41-0.5-0.91-1-1.57-1.59c-0.53-0.47-1.1-0.93-1.64-1.37
			c-1.11-0.9-2.36-1.92-2.76-2.62c-1.98-3.41-9.51-6.87-14.05-4.54c-0.5,0.26-1.16,0.5-1.85,0.75c-1.62,0.59-3.64,1.32-5.55,2.92
			c-1.31,1.1-1.97,2.08-2.44,2.9c-0.15,0.26-0.29,0.52-0.44,0.79c-0.14,0.26-0.28,0.53-0.45,0.82c-0.32,0.55-0.8,1.31-1.68,2.36
			c-0.43,0.5-0.82,1.07-1.18,1.69c-2.36,4.08-3.1,10.79-0.56,13.66c0.62,0.7,0.69,1,0.91,2c0.14,0.62,0.3,1.39,0.64,2.37
			c1.55,4.46,7.85,7.53,9.09,8.1c1.25,0.57,2.64,0.86,4.12,0.87c2.33,0.02,4.44-0.69,5.8-1.29c0.51-0.22,1.29-0.48,2.11-0.75
			c2.55-0.84,5.73-1.89,7.92-4.02C62.79,93.34,63.33,92.62,63.84,91.74L63.84,91.74z"/>
		<path class="st0" d="M54.86,68.84c2.02,1.31,7.04,3.73,5.73,6.5c-1.3,2.77,0.42,3.96-1.44,5.6c-1.85,1.64-6.44,4.82-6.81,2.19
			c-0.37-2.63-0.39-4.65-2.39-5.8c-2-1.16-4.02-3.93-2.16-5.57C49.64,70.11,52.42,67.25,54.86,68.84z"/>
	</g>
	<g id="_x31__23_">
		<path class="st0" d="M19.17,37.08c-0.77,0.02-1.51-0.04-2.19-0.22c-3.56-0.92-6.98-4.67-9.13-6.18c-1.34-0.94-2.71-2.23-3.64-3.78
			c-0.58-0.95-0.98-2-1.11-3.13c-0.35-2.98-0.27-8.36,1.75-10.81c1.78-2.17,2.93-2.33,3.72-4.9c0.7-2.27,5.83-5.02,10.27-5.12
			c0.59-0.01,1.16,0.02,1.71,0.11c1.57,0.25,2.72,0.29,3.67,0.27c0.76-0.02,1.38-0.07,2-0.08c0.92-0.02,1.82,0.05,3.07,0.48
			c3.14,1.07,4.98,3.3,7,4.53c3.19,1.96,4.07,9.13,2.66,11.71c-0.94,1.72-1.08,4.73-1.53,7.22c-0.13,0.69-0.28,1.35-0.48,1.92
			c-0.88,2.53-4.87,6.61-7.75,6.68c-0.08,0-0.17,0-0.25-0.01c-0.21-0.01-0.43-0.02-0.65-0.01C25.67,35.79,22.17,37.01,19.17,37.08
			 M19.24,40L19.24,40c1.81-0.04,3.63-0.41,5.38-0.76c1.4-0.29,2.73-0.55,3.73-0.58c0.14,0,0.27,0,0.4,0.01
			c0.17,0.01,0.33,0.01,0.5,0.01c4.36-0.09,9.26-5.23,10.45-8.64c0.23-0.66,0.42-1.41,0.59-2.35c0.14-0.76,0.25-1.54,0.35-2.3
			c0.21-1.54,0.45-3.28,0.87-4.04c2.05-3.76,1.02-12.71-3.7-15.61c-0.52-0.32-1.12-0.8-1.74-1.3c-1.46-1.17-3.28-2.63-5.84-3.5
			c-1.76-0.6-3.05-0.66-4.08-0.63c-0.32,0.01-0.64,0.02-0.99,0.04c-0.32,0.02-0.65,0.03-1.01,0.04c-0.69,0.01-1.67,0-3.15-0.23
			C20.3,0.03,19.54-0.01,18.77,0C13.64,0.11,7,3.21,5.77,7.18c-0.3,0.98-0.54,1.21-1.35,1.97c-0.5,0.48-1.12,1.07-1.84,1.93
			c-3.27,3.96-2.57,11.54-2.4,13.01c0.17,1.48,0.68,2.94,1.52,4.31c1.3,2.18,3.15,3.74,4.47,4.66c0.5,0.35,1.17,0.92,1.89,1.54
			c2.22,1.9,4.99,4.26,8.2,5.09C17.15,39.92,18.13,40.03,19.24,40L19.24,40z"/>
		<path class="st0" d="M33.54,11.85c0.27,5.55,1.05,11.62-2.63,11.3c-3.68-0.32-16.13-8.59-17.22-10.88
			c-1.09-2.29-1.56-5.95,2.9-6.12c4.46-0.18,7.9,0.31,10.14,0.58C28.97,7.01,33.4,8.99,33.54,11.85z"/>
	</g>
</g>
</svg>
