<?xml version="1.0" encoding="utf-8"?>
<!-- Generator: Adobe Illustrator 23.1.0, SVG Export Plug-In . SVG Version: 6.00 Build 0)  -->
<svg version="1.1" id="Слой_1" xmlns="http://www.w3.org/2000/svg" xmlns:xlink="http://www.w3.org/1999/xlink" x="0px" y="0px"
	 viewBox="0 0 285 186.82" style="enable-background:new 0 0 285 186.82;" xml:space="preserve">
<style type="text/css">
	.st0{fill:#FFFFFF;}
</style>
<g id="Icon_29_">
	<g id="Static_7_">
		<path class="st0" d="M276.12,8.6c-7.58,1.5-9.47,1.83-12.39,4.32c-4.71,4.05-7.46,7.93-9.61,9.45V7.81
			c2.12-0.05,3.83-1.77,3.83-3.9c0-2.13-1.71-3.86-3.83-3.9V0h-90.82H29.1v0.01c-2.11,0.05-3.81,1.77-3.81,3.9s1.7,3.85,3.81,3.9
			v12.98c-1.9-1.93-4.32-4.86-7.83-7.88c-2.92-2.49-4.81-2.82-12.39-4.32C-1.92,6.47-3.86,18.68,8.62,21.15
			c5.86,1.16,14.74,7.24,20.48,17.58v90.57c0,10.05,8.18,18.23,18.23,18.23H235.9c10.05,0,18.23-8.18,18.23-18.23V42.31
			c5.51-12.52,15.74-19.87,22.25-21.16C288.86,18.68,286.92,6.47,276.12,8.6z M246.3,129.3c0,5.74-4.67,10.41-10.41,10.41H47.33
			c-5.74,0-10.41-4.67-10.41-10.41V7.94l126.42-0.12h82.97V129.3z"/>
		<path class="st0" d="M162.15,34.31c-0.98-0.44-1.93-0.87-2.82-1.25c-7.67-3.27-25.55-6.85-38.38,3.01
			c-12.48,9.59-19.86,5.81-31.04,0.07c-1.94-1-3.95-2.03-6.11-3.05c-14.64-6.94-29.02-2.14-38.56,2.08l1.71,3.86
			C55.74,35.15,68.93,30.7,82,36.9c2.1,0.99,4.07,2.01,5.99,2.99c6.54,3.36,12.31,6.32,18.67,6.32c5.02,0,10.42-1.84,16.86-6.8
			c11.27-8.67,27.27-5.41,34.15-2.48c0.87,0.37,1.79,0.79,2.74,1.22c8.81,3.98,22.12,10,37.26-1.48
			c10.58-8.02,32.01-4.82,37.98,1.52l3.08-2.89c-7.24-7.7-31.04-11.52-43.61-1.99C181.99,43.27,170.99,38.3,162.15,34.31z"/>
	</g>
	<g id="Animated_2_">
		<path id="XMLID_9_" class="st0" d="M91.01,162.18c0,0-16.93,24.64,0,24.64S91.01,162.18,91.01,162.18z"/>
		<path id="XMLID_8_" class="st0" d="M114.69,162.18c0,0-16.93,24.64,0,24.64S114.69,162.18,114.69,162.18z"/>
		<path id="XMLID_7_" class="st0" d="M67.33,162.18c0,0-16.93,24.64,0,24.64C84.26,186.82,67.33,162.18,67.33,162.18z"/>
		<path id="XMLID_6_" class="st0" d="M138.36,162.18c0,0-16.93,24.64,0,24.64S138.36,162.18,138.36,162.18z"/>
		<path id="XMLID_4_" class="st0" d="M162.04,162.18c0,0-16.93,24.64,0,24.64C178.98,186.82,162.04,162.18,162.04,162.18z"/>
		<path id="XMLID_3_" class="st0" d="M185.72,162.18c0,0-16.93,24.64,0,24.64C202.65,186.82,185.72,162.18,185.72,162.18z"/>
		<path id="XMLID_2_" class="st0" d="M209.4,162.18c0,0-16.93,24.64,0,24.64S209.4,162.18,209.4,162.18z"/>
	</g>
	<g id="Animated_1_">
		<path class="st0" d="M132.76,58.69c-4.22,0-7.65,3.43-7.65,7.65c0,4.22,3.43,7.65,7.65,7.65c4.22,0,7.65-3.43,7.65-7.65
			C140.41,62.13,136.98,58.69,132.76,58.69z M132.76,69.89c-1.95,0-3.54-1.59-3.54-3.55s1.59-3.55,3.54-3.55
			c1.96,0,3.55,1.59,3.55,3.55S134.71,69.89,132.76,69.89z"/>
		<path class="st0" d="M166.89,79.22c-3.48,0-6.31,2.83-6.31,6.32c0,3.48,2.83,6.31,6.31,6.31s6.31-2.83,6.31-6.31
			C173.2,82.06,170.37,79.22,166.89,79.22z M166.89,87.75c-1.22,0-2.21-0.99-2.21-2.21c0-1.22,0.99-2.21,2.21-2.21
			s2.21,0.99,2.21,2.21C169.1,86.76,168.11,87.75,166.89,87.75z"/>
		<path class="st0" d="M99.09,76.67c0-3.48-2.83-6.31-6.32-6.31c-3.48,0-6.31,2.83-6.31,6.31s2.83,6.31,6.31,6.31
			C96.25,82.99,99.09,80.15,99.09,76.67z M90.56,76.67c0-1.22,0.99-2.21,2.21-2.21c1.22,0,2.21,0.99,2.21,2.21
			c0,1.22-0.99,2.21-2.21,2.21C91.55,78.88,90.56,77.89,90.56,76.67z"/>
		<path class="st0" d="M216.5,34.86c-4.3,0-7.79,3.5-7.79,7.79c0,4.3,3.5,7.79,7.79,7.79c4.3,0,7.79-3.5,7.79-7.79
			C224.3,38.36,220.8,34.86,216.5,34.86z M216.5,46.35c-2.04,0-3.69-1.66-3.69-3.69c0-2.04,1.66-3.69,3.69-3.69
			c2.04,0,3.69,1.66,3.69,3.69C220.19,44.69,218.54,46.35,216.5,46.35z"/>
		<path class="st0" d="M198.39,81.11c0-3.58-2.91-6.49-6.48-6.49c-3.58,0-6.48,2.91-6.48,6.49c0,3.58,2.91,6.48,6.48,6.48
			C195.48,87.59,198.39,84.68,198.39,81.11z M189.52,81.11c0-1.31,1.07-2.38,2.38-2.38c1.31,0,2.38,1.07,2.38,2.38
			c0,1.31-1.07,2.38-2.38,2.38C190.59,83.49,189.52,82.42,189.52,81.11z"/>
		<path class="st0" d="M197.87,97.54c-3.7,0-6.71,3.01-6.71,6.71c0,3.7,3.01,6.71,6.71,6.71c3.7,0,6.71-3.01,6.71-6.71
			C204.58,100.56,201.57,97.54,197.87,97.54z M197.87,106.86c-1.44,0-2.61-1.17-2.61-2.61c0-1.44,1.17-2.61,2.61-2.61
			c1.44,0,2.61,1.17,2.61,2.61C200.48,105.69,199.31,106.86,197.87,106.86z"/>
		<path class="st0" d="M99.43,93.89c-4.22,0-7.65,3.43-7.65,7.65c0,4.22,3.43,7.65,7.65,7.65c4.22,0,7.65-3.43,7.65-7.65
			C107.08,97.32,103.65,93.89,99.43,93.89z M99.43,105.08c-1.96,0-3.55-1.59-3.55-3.55c0-1.95,1.59-3.54,3.55-3.54
			c1.96,0,3.55,1.59,3.55,3.54C102.98,103.49,101.39,105.08,99.43,105.08z"/>
		<path class="st0" d="M69.84,54.16c-5.54,0-10.04,4.51-10.04,10.05c0,5.54,4.51,10.05,10.04,10.05c5.54,0,10.05-4.51,10.05-10.05
			C79.89,58.67,75.38,54.16,69.84,54.16z M69.84,70.16c-3.28,0-5.94-2.67-5.94-5.95c0-3.28,2.67-5.95,5.94-5.95
			c3.28,0,5.95,2.67,5.95,5.95C75.79,67.49,73.12,70.16,69.84,70.16z"/>
		<path class="st0" d="M202.53,51.86c-6.1,0-11.07,4.96-11.07,11.07c0,6.1,4.97,11.07,11.07,11.07c6.1,0,11.07-4.97,11.07-11.07
			C213.6,56.82,208.63,51.86,202.53,51.86z M202.53,69.89c-3.84,0-6.97-3.13-6.97-6.97c0-3.84,3.13-6.96,6.97-6.96
			c3.84,0,6.97,3.12,6.97,6.96C209.5,66.77,206.37,69.89,202.53,69.89z"/>
	</g>
</g>
</svg>
