<?xml version="1.0" encoding="utf-8"?>
<!-- Generator: Adobe Illustrator 23.1.0, SVG Export Plug-In . SVG Version: 6.00 Build 0)  -->
<svg version="1.1" id="Слой_1" xmlns="http://www.w3.org/2000/svg" xmlns:xlink="http://www.w3.org/1999/xlink" x="0px" y="0px"
	 viewBox="0 0 60 75" style="enable-background:new 0 0 60 75;" xml:space="preserve">
<style type="text/css">
	.st0{fill:#333333;}
</style>
<path id="Pointer" class="st0" d="M51.21,8.79C45.55,3.12,38.01,0,30,0S14.45,3.12,8.79,8.79S0,21.99,0,30c0,4.1,0.8,8.1,2.39,11.88
	s3.87,7.16,6.79,10.03L30,75l20.83-23.09c2.92-2.88,5.2-6.25,6.79-10.03C59.2,38.1,60,34.1,60,30C60,21.99,56.88,14.45,51.21,8.79z
	 M30,36.42c-4.23,0-7.67-3.44-7.67-7.67s3.44-7.67,7.67-7.67s7.67,3.44,7.67,7.67S34.23,36.42,30,36.42z"/>
</svg>
